<svg width="119" height="11" viewBox="0 0 119 11" fill="none" xmlns="http://www.w3.org/2000/svg">
<path d="M3.01985 1.13056V1.34221C2.77997 1.34927 2.59654 1.37749 2.46955 1.42687C2.34962 1.4692 2.26848 1.55386 2.22615 1.68085C2.18382 1.80079 2.16266 1.99128 2.16266 2.25231V7.50127C2.16266 7.75525 2.18382 7.94574 2.22615 8.07273C2.26848 8.19972 2.34962 8.28438 2.46955 8.32671C2.59654 8.36904 2.77997 8.39726 3.01985 8.41137V8.62302C2.85758 8.60892 2.65298 8.60186 2.40606 8.60186C2.16619 8.5948 1.92279 8.59128 1.67586 8.59128C1.40071 8.59128 1.1432 8.5948 0.903331 8.60186C0.663459 8.60186 0.469445 8.60892 0.321289 8.62302V8.41137C0.561161 8.39726 0.741065 8.36904 0.861 8.32671C0.987991 8.28438 1.07265 8.19972 1.11498 8.07273C1.15731 7.94574 1.17848 7.75525 1.17848 7.50127V2.25231C1.17848 1.99128 1.15731 1.80079 1.11498 1.68085C1.07265 1.55386 0.987991 1.4692 0.861 1.42687C0.741065 1.37749 0.561161 1.34927 0.321289 1.34221V1.13056C0.469445 1.13762 0.663459 1.14467 0.903331 1.15173C1.1432 1.15878 1.40071 1.16231 1.67586 1.16231C1.92279 1.16231 2.16619 1.15878 2.40606 1.15173C2.65298 1.14467 2.85758 1.13762 3.01985 1.13056ZM2.90344 4.64398C3.27736 4.64398 3.62658 4.68278 3.95111 4.76038C4.2827 4.83799 4.5649 4.98615 4.79772 5.20485C5.03054 5.42356 5.19633 5.74809 5.2951 6.17845L5.60199 7.51185C5.6796 7.83639 5.75015 8.06568 5.81365 8.19972C5.87714 8.32671 5.9865 8.38668 6.14171 8.37963C6.26164 8.37257 6.36041 8.33377 6.43802 8.26322C6.52268 8.19267 6.61087 8.09742 6.70258 7.97749L6.86132 8.0939C6.72728 8.29144 6.57912 8.4537 6.41685 8.58069C6.25459 8.70769 6.0253 8.77118 5.72899 8.77118C5.48206 8.77118 5.2563 8.70063 5.0517 8.55953C4.85416 8.41137 4.70248 8.10095 4.59665 7.62826L4.30034 6.31602C4.23684 6.01971 4.16276 5.7622 4.0781 5.54349C3.99344 5.32479 3.8594 5.15547 3.67597 5.03553C3.49253 4.90854 3.22092 4.84505 2.86111 4.84505H1.96159V4.64398H2.90344ZM2.16266 4.84505V4.64398C2.45897 4.63692 2.7059 4.57695 2.90344 4.46407C3.10803 4.34414 3.27736 4.19951 3.4114 4.03019L4.42733 2.73911C4.66015 2.4428 4.81888 2.19235 4.90354 1.98775C4.98821 1.78315 4.98468 1.62794 4.89296 1.52212C4.80125 1.40924 4.60723 1.34927 4.31092 1.34221V1.13056C4.44497 1.13762 4.58254 1.14467 4.72364 1.15173C4.86474 1.15173 5.00232 1.15525 5.13636 1.16231C5.27746 1.16231 5.40798 1.16231 5.52792 1.16231C5.71135 1.16231 5.88067 1.15878 6.03588 1.15173C6.19109 1.14467 6.32161 1.13762 6.42744 1.13056V1.34221C6.20873 1.37043 5.99708 1.44451 5.79248 1.56445C5.58788 1.67733 5.38329 1.86076 5.17869 2.11474L3.03043 4.84505H2.16266Z" fill="white"/>
<path d="M11.5818 3.02484C12.2027 3.02484 12.6859 3.21533 13.0316 3.5963C13.3844 3.97022 13.5608 4.55579 13.5608 5.35301H9.8251L9.81452 5.15194H12.5448C12.5589 4.80624 12.5307 4.48876 12.4602 4.19951C12.3896 3.9032 12.2767 3.66685 12.1215 3.49048C11.9734 3.3141 11.7794 3.22591 11.5395 3.22591C11.2149 3.22591 10.9257 3.38818 10.6717 3.71271C10.4248 4.03724 10.2766 4.55226 10.2272 5.25777L10.259 5.3001C10.2449 5.40592 10.2343 5.52233 10.2272 5.64932C10.2202 5.77631 10.2167 5.9033 10.2167 6.03029C10.2167 6.51004 10.2943 6.92276 10.4495 7.26846C10.6047 7.61415 10.8058 7.87872 11.0527 8.06215C11.3067 8.23852 11.5677 8.32671 11.8358 8.32671C12.0474 8.32671 12.2485 8.29496 12.439 8.23147C12.6295 8.16092 12.8059 8.04804 12.9681 7.89283C13.1304 7.73762 13.2715 7.52949 13.3914 7.26846L13.6031 7.35312C13.5255 7.58593 13.3985 7.81169 13.2221 8.0304C13.0457 8.24911 12.8235 8.42901 12.5554 8.57011C12.2873 8.70416 11.9769 8.77118 11.6241 8.77118C11.1162 8.77118 10.6788 8.65477 10.3119 8.42196C9.9521 8.18914 9.67342 7.86813 9.47588 7.45894C9.28539 7.04269 9.19015 6.56648 9.19015 6.03029C9.19015 5.40945 9.28892 4.87679 9.48646 4.43232C9.684 3.9808 9.96268 3.6351 10.3225 3.39523C10.6823 3.1483 11.1021 3.02484 11.5818 3.02484Z" fill="white"/>
<path d="M22.1735 3.18358V3.40581C21.8842 3.40581 21.6761 3.45873 21.5491 3.56455C21.4292 3.67038 21.3692 3.87145 21.3692 4.16776V7.63884C21.3692 7.93516 21.4292 8.13623 21.5491 8.24205C21.6761 8.34788 21.8842 8.40079 22.1735 8.40079V8.62302C22.0535 8.61597 21.8701 8.60891 21.6232 8.60186C21.3763 8.58775 21.1364 8.58069 20.9036 8.58069C20.6708 8.58069 20.4415 8.58775 20.2157 8.60186C19.997 8.60891 19.8312 8.61597 19.7183 8.62302V8.40079C19.9723 8.40079 20.1522 8.34788 20.258 8.24205C20.3639 8.13623 20.4168 7.93516 20.4168 7.63884V4.16776C20.4168 3.87145 20.3639 3.67038 20.258 3.56455C20.1522 3.45873 19.9723 3.40581 19.7183 3.40581V3.18358C19.8312 3.19064 19.997 3.20122 20.2157 3.21533C20.4415 3.22238 20.6708 3.22591 20.9036 3.22591C21.1364 3.22591 21.3763 3.22238 21.6232 3.21533C21.8701 3.20122 22.0535 3.19064 22.1735 3.18358ZM18.6177 3.18358V3.40581C18.3638 3.40581 18.1839 3.45873 18.078 3.56455C17.9722 3.67038 17.9193 3.87145 17.9193 4.16776V7.63884C17.9193 7.93516 17.9722 8.13623 18.078 8.24205C18.1839 8.34788 18.3638 8.40079 18.6177 8.40079V8.62302C18.5049 8.61597 18.3355 8.60891 18.1098 8.60186C17.8911 8.58775 17.6653 8.58069 17.4325 8.58069C17.1997 8.58069 16.9598 8.58775 16.7129 8.60186C16.4659 8.60891 16.2825 8.61597 16.1626 8.62302V8.40079C16.4518 8.40079 16.6564 8.34788 16.7764 8.24205C16.9034 8.13623 16.9669 7.93516 16.9669 7.63884V4.16776C16.9669 3.87145 16.9034 3.67038 16.7764 3.56455C16.6564 3.45873 16.4518 3.40581 16.1626 3.40581V3.18358C16.2825 3.19064 16.4659 3.20122 16.7129 3.21533C16.9598 3.22238 17.1997 3.22591 17.4325 3.22591C17.6653 3.22591 17.8911 3.22238 18.1098 3.21533C18.3355 3.20122 18.5049 3.19064 18.6177 3.18358ZM20.5226 3.92436L20.6919 4.04077L17.7817 8.06215L17.6124 7.93516L20.5226 3.92436ZM20.5332 0.220459C20.6954 0.220459 20.8295 0.273372 20.9353 0.379197C21.0411 0.485023 21.0941 0.619069 21.0941 0.781335C21.0941 0.929492 21.0482 1.07059 20.9565 1.20464C20.8648 1.33163 20.7448 1.44451 20.5967 1.54328C20.4485 1.64205 20.258 1.73024 20.0252 1.80785C19.7924 1.88545 19.4996 1.92425 19.1469 1.92425C18.8012 1.92425 18.5084 1.88545 18.2685 1.80785C18.0357 1.73024 17.8452 1.64205 17.6971 1.54328C17.5489 1.44451 17.429 1.33163 17.3372 1.20464C17.2455 1.07059 17.1997 0.929492 17.1997 0.781335C17.1997 0.619069 17.2526 0.485023 17.3584 0.379197C17.4642 0.273372 17.5983 0.220459 17.7605 0.220459C17.9228 0.220459 18.0604 0.269844 18.1733 0.368615C18.2861 0.467386 18.3426 0.608487 18.3426 0.791918C18.3426 0.940074 18.3003 1.06001 18.2156 1.15173C18.138 1.24344 18.0322 1.30341 17.8981 1.33163C18.0392 1.48684 18.2332 1.58914 18.4802 1.63852C18.7341 1.68791 18.9564 1.7126 19.1469 1.7126C19.3374 1.7126 19.5561 1.68791 19.803 1.63852C20.057 1.58914 20.2545 1.48684 20.3956 1.33163C20.2616 1.30341 20.1522 1.24344 20.0675 1.15173C19.9899 1.06001 19.9511 0.940074 19.9511 0.791918C19.9511 0.608487 20.0076 0.467386 20.1205 0.368615C20.2404 0.269844 20.378 0.220459 20.5332 0.220459Z" fill="white"/>
<path d="M27.2317 3.02484C27.4575 3.02484 27.6762 3.05306 27.8878 3.1095C28.0995 3.16594 28.29 3.2506 28.4593 3.36348C28.6216 3.46931 28.745 3.59277 28.8297 3.73387C28.9143 3.86792 28.9567 4.01608 28.9567 4.17834C28.9567 4.36883 28.9038 4.51698 28.7979 4.62281C28.6921 4.72158 28.5581 4.77097 28.3958 4.77097C28.2406 4.77097 28.103 4.72511 27.9831 4.63339C27.8702 4.54168 27.8137 4.41116 27.8137 4.24184C27.8137 4.07957 27.8561 3.94905 27.9407 3.85028C28.0325 3.75151 28.1383 3.68802 28.2582 3.6598C28.1877 3.53281 28.0607 3.42698 27.8772 3.34232C27.7009 3.25766 27.5104 3.21533 27.3058 3.21533C27.1294 3.21533 26.953 3.25766 26.7767 3.34232C26.6003 3.42698 26.438 3.56808 26.2899 3.76562C26.1417 3.95611 26.0218 4.22067 25.93 4.55932C25.8383 4.8909 25.7925 5.30715 25.7925 5.80806C25.7925 6.4289 25.863 6.92276 26.0041 7.28962C26.1452 7.65648 26.3287 7.92105 26.5544 8.08331C26.7872 8.23852 27.0412 8.31613 27.3164 8.31613C27.4998 8.31613 27.6868 8.28086 27.8772 8.2103C28.0677 8.13975 28.2476 8.02687 28.417 7.87166C28.5863 7.7094 28.7309 7.49422 28.8508 7.22612L29.0519 7.3002C28.9814 7.52596 28.865 7.75525 28.7027 7.98807C28.5404 8.21383 28.3288 8.40079 28.0677 8.54895C27.8067 8.6971 27.4857 8.77118 27.1047 8.77118C26.6673 8.77118 26.2722 8.6583 25.9195 8.43254C25.5667 8.20678 25.2845 7.88577 25.0729 7.46952C24.8683 7.04622 24.766 6.54531 24.766 5.9668C24.766 5.38828 24.8683 4.88032 25.0729 4.44291C25.2845 3.99844 25.5773 3.65274 25.9512 3.40581C26.3251 3.15183 26.752 3.02484 27.2317 3.02484Z" fill="white"/>
<path d="M35.5686 5.46942V6.08321H31.7483V5.46942H35.5686Z" fill="white"/>
<path d="M44.2572 3.18358V3.40581C43.9679 3.40581 43.7598 3.45873 43.6328 3.56455C43.5129 3.67038 43.4529 3.87145 43.4529 4.16776V7.63884C43.4529 7.93516 43.5129 8.13623 43.6328 8.24205C43.7598 8.34788 43.9679 8.40079 44.2572 8.40079V8.62302C44.1372 8.61597 43.9538 8.60891 43.7069 8.60186C43.4599 8.58775 43.2201 8.58069 42.9873 8.58069C42.7544 8.58069 42.5252 8.58775 42.2994 8.60186C42.0807 8.60891 41.9149 8.61597 41.802 8.62302V8.40079C42.056 8.40079 42.2359 8.34788 42.3417 8.24205C42.4475 8.13623 42.5005 7.93516 42.5005 7.63884V4.16776C42.5005 3.87145 42.4475 3.67038 42.3417 3.56455C42.2359 3.45873 42.056 3.40581 41.802 3.40581H40.8602C40.6062 3.40581 40.4263 3.45873 40.3204 3.56455C40.2146 3.67038 40.1617 3.87145 40.1617 4.16776V7.63884C40.1617 7.93516 40.2146 8.13623 40.3204 8.24205C40.4263 8.34788 40.6062 8.40079 40.8602 8.40079V8.62302C40.7473 8.61597 40.578 8.60891 40.3522 8.60186C40.1335 8.58775 39.9077 8.58069 39.6749 8.58069C39.4421 8.58069 39.2022 8.58775 38.9553 8.60186C38.7084 8.60891 38.5249 8.61597 38.405 8.62302V8.40079C38.6943 8.40079 38.8989 8.34788 39.0188 8.24205C39.1458 8.13623 39.2093 7.93516 39.2093 7.63884V4.16776C39.2093 3.87145 39.1458 3.67038 39.0188 3.56455C38.8989 3.45873 38.6943 3.40581 38.405 3.40581V3.18358C38.5249 3.19064 38.7084 3.20122 38.9553 3.21533C39.2022 3.22238 39.4421 3.22591 39.6749 3.22591C40.0136 3.22591 40.3134 3.21886 40.5744 3.20475C40.8425 3.19064 41.1141 3.18358 41.3893 3.18358C41.6644 3.18358 41.9149 3.19064 42.1407 3.20475C42.3664 3.21886 42.6486 3.22591 42.9873 3.22591C43.2201 3.22591 43.4599 3.22238 43.7069 3.21533C43.9538 3.20122 44.1372 3.19064 44.2572 3.18358Z" fill="white"/>
<path d="M49.2662 3.02484C49.7177 3.02484 50.1234 3.12361 50.4832 3.32115C50.843 3.5187 51.1287 3.82912 51.3404 4.25242C51.5591 4.67572 51.6684 5.22602 51.6684 5.9033C51.6684 6.58059 51.5591 7.13088 51.3404 7.55418C51.1287 7.97043 50.843 8.27733 50.4832 8.47487C50.1234 8.67241 49.7177 8.77118 49.2662 8.77118C48.8217 8.77118 48.4161 8.67241 48.0492 8.47487C47.6894 8.27733 47.4001 7.97043 47.1814 7.55418C46.9698 7.13088 46.864 6.58059 46.864 5.9033C46.864 5.22602 46.9698 4.67572 47.1814 4.25242C47.4001 3.82912 47.6894 3.5187 48.0492 3.32115C48.4161 3.12361 48.8217 3.02484 49.2662 3.02484ZM49.2662 3.23649C48.8641 3.23649 48.5325 3.44462 48.2714 3.86087C48.0175 4.27711 47.8905 4.95793 47.8905 5.9033C47.8905 6.84868 48.0175 7.52949 48.2714 7.94574C48.5325 8.35493 48.8641 8.55953 49.2662 8.55953C49.6683 8.55953 49.9964 8.35493 50.2504 7.94574C50.5114 7.52949 50.6419 6.84868 50.6419 5.9033C50.6419 4.95793 50.5114 4.27711 50.2504 3.86087C49.9964 3.44462 49.6683 3.23649 49.2662 3.23649Z" fill="white"/>
<path d="M55.9528 3.05659V9.55429C55.9528 9.85766 56.041 10.0587 56.2174 10.1575C56.4008 10.2633 56.6513 10.3162 56.9687 10.3162V10.5385C56.8135 10.5314 56.5984 10.5208 56.3232 10.5067C56.0481 10.4997 55.7553 10.4961 55.4449 10.4961C55.2261 10.4961 55.0074 10.4997 54.7887 10.5067C54.5771 10.5208 54.4148 10.5314 54.3019 10.5385V10.3162C54.5559 10.3162 54.7358 10.2704 54.8416 10.1787C54.9475 10.0869 55.0004 9.9141 55.0004 9.66012V4.3265C55.0004 4.00902 54.9439 3.7762 54.8311 3.62805C54.7182 3.47284 54.5065 3.39523 54.1961 3.39523V3.173C54.4219 3.19416 54.6406 3.20475 54.8522 3.20475C55.0568 3.20475 55.2508 3.19416 55.4343 3.173C55.6248 3.14478 55.7976 3.10597 55.9528 3.05659ZM57.646 3.02484C58.0199 3.02484 58.3551 3.12714 58.6514 3.33174C58.9477 3.52928 59.1805 3.82206 59.3498 4.21009C59.5262 4.59812 59.6144 5.07786 59.6144 5.64932C59.6144 6.03029 59.5685 6.40774 59.4768 6.78166C59.3851 7.14852 59.2405 7.48363 59.0429 7.787C58.8524 8.08331 58.602 8.32318 58.2916 8.50662C57.9882 8.68299 57.6213 8.77118 57.191 8.77118C56.8594 8.77118 56.5701 8.69357 56.3232 8.53836C56.0833 8.38315 55.9211 8.19619 55.8364 7.97749L55.9422 7.82933C56.041 8.02687 56.1821 8.19267 56.3655 8.32671C56.556 8.46076 56.7924 8.52778 57.0746 8.52778C57.4697 8.52778 57.7765 8.40432 57.9953 8.15739C58.214 7.91046 58.3656 7.5824 58.4503 7.17321C58.542 6.75696 58.5879 6.29839 58.5879 5.79748C58.5879 5.23307 58.542 4.77097 58.4503 4.41116C58.3586 4.05135 58.221 3.78326 58.0376 3.60688C57.8541 3.43051 57.6284 3.34232 57.3603 3.34232C57.0146 3.34232 56.7006 3.48695 56.4184 3.7762C56.1362 4.05841 55.9563 4.48876 55.8787 5.06728L55.7517 4.91912C55.8294 4.31944 56.041 3.85381 56.3867 3.52222C56.7395 3.19064 57.1592 3.02484 57.646 3.02484Z" fill="white"/>
<path d="M67.4355 3.18358C67.4073 3.43051 67.3861 3.66685 67.372 3.89261C67.3649 4.11837 67.3614 4.29122 67.3614 4.41116C67.3614 4.53815 67.3649 4.66161 67.372 4.78155C67.3791 4.89443 67.3861 4.98967 67.3932 5.06728H67.1498C67.1145 4.58048 67.0404 4.21715 66.9275 3.97727C66.8147 3.7374 66.6594 3.58219 66.4619 3.51164C66.2644 3.43403 66.021 3.39523 65.7317 3.39523H65.319V7.53302C65.319 7.87872 65.4177 8.11153 65.6153 8.23147C65.8199 8.34435 66.095 8.40079 66.4407 8.40079V8.62302C66.2785 8.61597 66.0527 8.60891 65.7634 8.60186C65.4812 8.58775 65.1743 8.58069 64.8428 8.58069C64.5182 8.58069 64.2113 8.58775 63.9221 8.60186C63.6328 8.60891 63.4071 8.61597 63.2448 8.62302V8.40079C63.5975 8.40079 63.8727 8.34435 64.0702 8.23147C64.2678 8.11153 64.3665 7.87872 64.3665 7.53302V3.39523H63.848C63.5587 3.39523 63.3224 3.43403 63.139 3.51164C62.9626 3.58925 62.825 3.74798 62.7262 3.98786C62.6345 4.22773 62.571 4.59106 62.5358 5.07786H62.2924C62.3065 5.00026 62.3135 4.90501 62.3135 4.79213C62.3206 4.6722 62.3241 4.54873 62.3241 4.42174C62.3241 4.30181 62.3171 4.12896 62.3029 3.9032C62.2959 3.67743 62.2782 3.44109 62.25 3.19416H63.266C63.5058 3.19416 63.7598 3.19769 64.0279 3.20475C64.3031 3.2118 64.5711 3.21533 64.8322 3.21533C65.1003 3.21533 65.3719 3.2118 65.647 3.20475C65.9222 3.19064 66.1797 3.18358 66.4196 3.18358H67.4355Z" fill="white"/>
<path d="M74.2688 1.00357V9.55429C74.2688 9.85766 74.3393 10.0587 74.4804 10.1575C74.6215 10.2633 74.8191 10.3162 75.0731 10.3162V10.5385C74.939 10.5314 74.7591 10.5208 74.5333 10.5067C74.3076 10.4997 74.0607 10.4961 73.7926 10.4961C73.5315 10.4961 73.2846 10.4997 73.0518 10.5067C72.826 10.5208 72.6461 10.5314 72.5121 10.5385V10.3162C72.766 10.3162 72.9636 10.2633 73.1047 10.1575C73.2458 10.0587 73.3163 9.85766 73.3163 9.55429V2.27348C73.3163 1.956 73.2599 1.72318 73.147 1.57503C73.0341 1.41982 72.8225 1.34221 72.5121 1.34221V1.11998C72.6249 1.12703 72.7343 1.13409 72.8401 1.14114C72.953 1.1482 73.0624 1.15173 73.1682 1.15173C73.3728 1.15173 73.5668 1.14114 73.7502 1.11998C73.9407 1.09176 74.1136 1.05295 74.2688 1.00357ZM72.2687 3.02484C72.6426 3.02484 72.946 3.11656 73.1788 3.29999C73.4186 3.48342 73.5985 3.79384 73.7185 4.23126L73.5068 4.11485C73.3939 3.81853 73.2317 3.60336 73.02 3.46931C72.8154 3.33526 72.6003 3.26824 72.3745 3.26824C71.9653 3.26824 71.6514 3.48342 71.4326 3.91378C71.2139 4.33708 71.1046 4.97909 71.1046 5.83981C71.1046 6.42538 71.1575 6.91218 71.2633 7.3002C71.3691 7.68823 71.5279 7.97749 71.7395 8.16797C71.9512 8.35846 72.2158 8.4537 72.5332 8.4537C72.7802 8.4537 73.0094 8.40079 73.2211 8.29496C73.4327 8.18914 73.5562 8.02687 73.5915 7.80817L73.7185 7.90341C73.6761 8.17856 73.5139 8.39374 73.2317 8.54895C72.9565 8.6971 72.6355 8.77118 72.2687 8.77118C71.8454 8.77118 71.4679 8.66535 71.1363 8.4537C70.8118 8.24205 70.5543 7.9281 70.3638 7.51185C70.1733 7.08855 70.0781 6.55942 70.0781 5.92447C70.0781 5.26835 70.1768 4.72511 70.3744 4.29475C70.5719 3.86439 70.8365 3.54692 71.1681 3.34232C71.4997 3.13067 71.8665 3.02484 72.2687 3.02484ZM75.4858 3.02484C76.0713 3.02484 76.5546 3.24708 76.9356 3.69154C77.3166 4.12896 77.507 4.78155 77.507 5.64932C77.507 6.03029 77.4612 6.40774 77.3695 6.78166C77.2848 7.14852 77.1508 7.48363 76.9673 7.787C76.7839 8.08331 76.544 8.32318 76.2477 8.50662C75.9514 8.68299 75.5951 8.77118 75.1789 8.77118C74.9178 8.77118 74.6921 8.72532 74.5016 8.63361C74.3111 8.54895 74.1453 8.40785 74.0042 8.2103L74.0571 7.98807C74.1771 8.16445 74.3217 8.29849 74.491 8.39021C74.6674 8.48192 74.8614 8.52778 75.0731 8.52778C75.4329 8.52778 75.7151 8.40785 75.9197 8.16797C76.1243 7.9281 76.2689 7.60357 76.3535 7.19438C76.4382 6.77813 76.4805 6.3125 76.4805 5.79748C76.4805 5.22602 76.4347 4.76038 76.343 4.40058C76.2512 4.03371 76.1101 3.76562 75.9197 3.5963C75.7362 3.42698 75.5034 3.34232 75.2212 3.34232C74.9461 3.34232 74.6886 3.41992 74.4487 3.57514C74.2088 3.73035 74.0606 3.96669 74.0042 4.28417L73.8031 4.23126C73.8666 3.97022 73.9795 3.75151 74.1418 3.57514C74.304 3.3917 74.5016 3.25413 74.7344 3.16242C74.9672 3.0707 75.2177 3.02484 75.4858 3.02484Z" fill="white"/>
<path d="M82.7121 3.02484C83.1636 3.02484 83.5693 3.12361 83.9291 3.32115C84.2889 3.5187 84.5746 3.82912 84.7863 4.25242C85.005 4.67572 85.1143 5.22602 85.1143 5.9033C85.1143 6.58059 85.005 7.13088 84.7863 7.55418C84.5746 7.97043 84.2889 8.27733 83.9291 8.47487C83.5693 8.67241 83.1636 8.77118 82.7121 8.77118C82.2676 8.77118 81.862 8.67241 81.4951 8.47487C81.1353 8.27733 80.846 7.97043 80.6273 7.55418C80.4157 7.13088 80.3099 6.58059 80.3099 5.9033C80.3099 5.22602 80.4157 4.67572 80.6273 4.25242C80.846 3.82912 81.1353 3.5187 81.4951 3.32115C81.862 3.12361 82.2676 3.02484 82.7121 3.02484ZM82.7121 3.23649C82.31 3.23649 81.9784 3.44462 81.7173 3.86087C81.4634 4.27711 81.3364 4.95793 81.3364 5.9033C81.3364 6.84868 81.4634 7.52949 81.7173 7.94574C81.9784 8.35493 82.31 8.55953 82.7121 8.55953C83.1142 8.55953 83.4423 8.35493 83.6963 7.94574C83.9573 7.52949 84.0878 6.84868 84.0878 5.9033C84.0878 4.95793 83.9573 4.27711 83.6963 3.86087C83.4423 3.44462 83.1142 3.23649 82.7121 3.23649Z" fill="white"/>
<path d="M92.3265 3.18358V3.40581C92.0373 3.40581 91.8292 3.45873 91.7022 3.56455C91.5822 3.67038 91.5223 3.87145 91.5223 4.16776V7.63884C91.5223 7.93516 91.5822 8.13623 91.7022 8.24205C91.8292 8.34788 92.0373 8.40079 92.3265 8.40079V8.62302C92.2066 8.61597 92.0302 8.60891 91.7974 8.60186C91.5646 8.58775 91.3106 8.58069 91.0355 8.58069C90.7603 8.58069 90.4816 8.58775 90.1994 8.60186C89.9243 8.60891 89.7091 8.61597 89.5539 8.62302V8.40079C89.8714 8.40079 90.1183 8.35141 90.2947 8.25263C90.4781 8.14681 90.5698 7.94221 90.5698 7.63884V4.16776C90.5698 3.87145 90.5169 3.67038 90.4111 3.56455C90.3053 3.45873 90.1254 3.40581 89.8714 3.40581H89.7761C89.5998 3.40581 89.4834 3.45873 89.4269 3.56455C89.3705 3.67038 89.3281 3.87145 89.2999 4.16776C89.2435 4.82388 89.1729 5.45178 89.0883 6.05146C89.0107 6.64408 88.8766 7.18027 88.6861 7.66001C88.6156 7.82933 88.5274 8.00218 88.4216 8.17856C88.3157 8.34788 88.1852 8.48898 88.03 8.60186C87.8819 8.71474 87.702 8.77118 87.4903 8.77118C87.3633 8.77118 87.2434 8.74649 87.1305 8.6971C87.0176 8.65477 86.9259 8.58775 86.8553 8.49603C86.7848 8.39726 86.7495 8.27733 86.7495 8.13623C86.7495 7.95985 86.8024 7.82228 86.9083 7.72351C87.0141 7.62473 87.1517 7.57535 87.321 7.57535C87.4691 7.57535 87.5926 7.61768 87.6914 7.70234C87.7972 7.787 87.8501 7.91399 87.8501 8.08331C87.8501 8.19619 87.8184 8.29849 87.7549 8.39021C87.6914 8.47487 87.5891 8.54542 87.448 8.60186C87.4621 8.60891 87.4797 8.61244 87.5009 8.61244C87.5291 8.61244 87.5467 8.61244 87.5538 8.61244C87.7302 8.61244 87.8783 8.556 87.9983 8.44312C88.1253 8.32318 88.2311 8.18561 88.3157 8.0304C88.4075 7.86813 88.4745 7.72703 88.5168 7.6071C88.6297 7.31079 88.7249 6.9792 88.8025 6.61234C88.8801 6.24547 88.9436 5.85392 88.993 5.43767C89.0424 5.02142 89.0812 4.59812 89.1094 4.16776C89.1306 3.87145 89.0671 3.67038 88.919 3.56455C88.7778 3.45873 88.5627 3.40581 88.2734 3.40581V3.18358C88.3299 3.19064 88.418 3.20122 88.538 3.21533C88.665 3.22238 88.8167 3.22591 88.993 3.22591C89.1341 3.22591 89.2788 3.22591 89.4269 3.22591C89.5821 3.22591 89.7373 3.22591 89.8925 3.22591C90.0266 3.22591 90.1501 3.22591 90.2629 3.22591C90.3758 3.22591 90.4958 3.22591 90.6227 3.22591C90.7497 3.22591 90.8908 3.22591 91.0461 3.22591C91.2083 3.22591 91.3706 3.22238 91.5329 3.21533C91.7022 3.20827 91.8574 3.20122 91.9985 3.19416C92.1396 3.18711 92.2489 3.18358 92.3265 3.18358Z" fill="white"/>
<path d="M100.755 3.18358V3.40581C100.466 3.40581 100.258 3.45873 100.131 3.56455C100.011 3.67038 99.951 3.87145 99.951 4.16776V7.63884C99.951 7.93516 100.011 8.13623 100.131 8.24205C100.258 8.34788 100.466 8.40079 100.755 8.40079V8.62302C100.635 8.61597 100.452 8.60891 100.205 8.60186C99.9581 8.58775 99.7182 8.58069 99.4854 8.58069C99.2526 8.58069 99.0233 8.58775 98.7975 8.60186C98.5788 8.60891 98.413 8.61597 98.3002 8.62302V8.40079C98.5541 8.40079 98.734 8.34788 98.8399 8.24205C98.9457 8.13623 98.9986 7.93516 98.9986 7.63884V4.16776C98.9986 3.87145 98.9457 3.67038 98.8399 3.56455C98.734 3.45873 98.5541 3.40581 98.3002 3.40581V3.18358C98.413 3.19064 98.5788 3.20122 98.7975 3.21533C99.0233 3.22238 99.2526 3.22591 99.4854 3.22591C99.7182 3.22591 99.9581 3.22238 100.205 3.21533C100.452 3.20122 100.635 3.19064 100.755 3.18358ZM97.1996 3.18358V3.40581C96.9456 3.40581 96.7657 3.45873 96.6599 3.56455C96.554 3.67038 96.5011 3.87145 96.5011 4.16776V7.63884C96.5011 7.93516 96.554 8.13623 96.6599 8.24205C96.7657 8.34788 96.9456 8.40079 97.1996 8.40079V8.62302C97.0867 8.61597 96.9174 8.60891 96.6916 8.60186C96.4729 8.58775 96.2471 8.58069 96.0143 8.58069C95.7815 8.58069 95.5416 8.58775 95.2947 8.60186C95.0478 8.60891 94.8643 8.61597 94.7444 8.62302V8.40079C95.0337 8.40079 95.2383 8.34788 95.3582 8.24205C95.4852 8.13623 95.5487 7.93516 95.5487 7.63884V4.16776C95.5487 3.87145 95.4852 3.67038 95.3582 3.56455C95.2383 3.45873 95.0337 3.40581 94.7444 3.40581V3.18358C94.8643 3.19064 95.0478 3.20122 95.2947 3.21533C95.5416 3.22238 95.7815 3.22591 96.0143 3.22591C96.2471 3.22591 96.4729 3.22238 96.6916 3.21533C96.9174 3.20122 97.0867 3.19064 97.1996 3.18358ZM99.1044 3.92436L99.2738 4.04077L96.3635 8.06215L96.1942 7.93516L99.1044 3.92436Z" fill="white"/>
<path d="M105.761 3.02484C106.212 3.02484 106.618 3.12361 106.978 3.32115C107.337 3.5187 107.623 3.82912 107.835 4.25242C108.054 4.67572 108.163 5.22602 108.163 5.9033C108.163 6.58059 108.054 7.13088 107.835 7.55418C107.623 7.97043 107.337 8.27733 106.978 8.47487C106.618 8.67241 106.212 8.77118 105.761 8.77118C105.316 8.77118 104.91 8.67241 104.544 8.47487C104.184 8.27733 103.895 7.97043 103.676 7.55418C103.464 7.13088 103.358 6.58059 103.358 5.9033C103.358 5.22602 103.464 4.67572 103.676 4.25242C103.895 3.82912 104.184 3.5187 104.544 3.32115C104.91 3.12361 105.316 3.02484 105.761 3.02484ZM105.761 3.23649C105.358 3.23649 105.027 3.44462 104.766 3.86087C104.512 4.27711 104.385 4.95793 104.385 5.9033C104.385 6.84868 104.512 7.52949 104.766 7.94574C105.027 8.35493 105.358 8.55953 105.761 8.55953C106.163 8.55953 106.491 8.35493 106.745 7.94574C107.006 7.52949 107.136 6.84868 107.136 5.9033C107.136 4.95793 107.006 4.27711 106.745 3.86087C106.491 3.44462 106.163 3.23649 105.761 3.23649Z" fill="white"/>
<path d="M115.58 3.02484C115.869 3.67391 116.208 4.23831 116.596 4.71805C116.984 5.19074 117.457 5.5823 118.014 5.89272V5.9033C117.457 6.21372 116.984 6.60881 116.596 7.08855C116.208 7.56124 115.869 8.12212 115.58 8.77118L115.4 8.6971C115.527 8.35141 115.658 8.04451 115.792 7.77642C115.933 7.50127 116.077 7.25434 116.225 7.03564C116.381 6.81693 116.539 6.61939 116.702 6.44301C116.864 6.25958 117.037 6.09026 117.22 5.93505C117.037 5.77278 116.864 5.59994 116.702 5.4165C116.539 5.23307 116.381 5.02848 116.225 4.80271C116.077 4.5699 115.933 4.31592 115.792 4.04077C115.658 3.75857 115.527 3.44462 115.4 3.09892L115.58 3.02484Z" fill="white"/>
</svg>
