<svg width="418" height="126" viewBox="0 0 418 126" fill="none" xmlns="http://www.w3.org/2000/svg">
<path d="M65.1682 12C61.4019 12 55.8972 15.3839 53.5794 17.0759L59.0841 20.4599C63.1402 17.0759 66.9065 14.538 76.1776 14.538C92.4019 14.538 102.118 28.3557 102.542 48.0954C102.659 53.5468 102.719 56.6108 102.542 62.4772C101.673 68.6811 101.093 71.7831 98.1963 77.705C93.8609 86.5664 86.028 92.3688 74.1495 91.8048C66.6258 91.4475 62.5607 88.7028 58.7944 85.3189L53 89.2668C64.8785 99.1367 84 96.3167 92.6916 92.3688C103.516 87.4519 114.131 74.321 115 64.7332V41.6095C115 27.2278 94.4299 12 87.7664 12H65.1682Z" fill="white" stroke="white"/>
<rect x="1.5" y="8.92355" width="114.633" height="89.5078" rx="1.5" stroke="white" stroke-width="3"/>
<rect x="127.129" y="8.9234" width="289.37" height="89.5078" rx="1.5" stroke="white" stroke-width="3"/>
<rect x="119.346" width="4.56828" height="105.071" fill="white"/>
<rect x="2" y="11" width="12" height="85" fill="white"/>
<path d="M30.3278 11H14V16.5119H30.3278C34.3381 16.5119 38.0395 17.6724 42.6453 20.5734C51.8569 26.3754 57.6554 38.5597 58.4002 46.1024C59.546 57.7065 58.5577 67.8601 53.5305 75.6928C49.8066 81.4949 41.4995 90.7782 30.3278 91.3584H14V96H30.3278C41.4995 96 50.3795 92.8089 59.546 85.2662C66.7638 79.3271 71.2323 69.3106 72.4364 60.3174C74.728 43.2014 69.8583 32.7577 60.9783 22.314C53.0085 12.9409 35.484 11 30.3278 11Z" fill="white"/>
<path d="M19.125 18.9457C19.125 17.7674 19.9032 16.5223 20.9338 16H14V92H20.9338C20.0294 91.1163 18.8235 88.7597 18.8235 87.5814L19.125 54.8837H37.2132C37.2132 68.4341 42.3382 77.2713 47.4632 83.7519L55 74.9147C51.6838 66.3721 50.1765 47.814 54.6985 32.2015L47.4632 24.2481C42.0368 29.5504 37.2132 40.4496 37.2132 51.0543H19.125V18.9457Z" fill="white" stroke="white"/>
<path d="M162.098 37.7946V38.7622C161.001 38.7945 160.162 38.9235 159.581 39.1493C159.033 39.3428 158.662 39.7299 158.468 40.3105C158.274 40.8588 158.178 41.7297 158.178 42.9231V66.9206C158.178 68.6946 158.403 69.8396 158.855 70.3557C159.307 70.8395 160.291 71.0815 161.807 71.0815H163.259C163.13 72.3394 163.033 73.5489 162.969 74.7101C162.937 75.8713 162.921 76.7583 162.921 77.3711C162.921 78.6613 162.969 79.7096 163.066 80.516H161.953C161.63 78.3871 161.114 76.6938 160.404 75.4358C159.694 74.2102 158.774 73.3393 157.645 72.8232C156.548 72.3071 155.241 72.0491 153.725 72.0491H142.013C140.496 72.0491 139.174 72.3071 138.044 72.8232C136.947 73.3393 136.044 74.2102 135.334 75.4358C134.624 76.6938 134.108 78.3871 133.785 80.516H132.672C132.769 79.7096 132.817 78.6613 132.817 77.3711C132.817 76.7583 132.785 75.8713 132.721 74.7101C132.688 73.5489 132.608 72.3394 132.479 71.0815H146.562C148.208 71.0815 149.272 70.8395 149.756 70.3557C150.24 69.8396 150.482 68.6946 150.482 66.9206V42.9231C150.482 41.1491 150.224 40.0202 149.708 39.5364C149.224 39.0203 148.369 38.7622 147.143 38.7622H146.514C145.836 38.7622 145.288 38.8751 144.868 39.1009C144.449 39.2944 144.126 39.6976 143.9 40.3105C143.707 40.8911 143.562 41.7619 143.465 42.9231C143.271 45.1164 143.078 47.5194 142.884 50.132C142.723 52.7447 142.465 55.3412 142.11 57.9215C141.787 60.4697 141.287 62.8081 140.609 64.9369C139.964 67.0657 139.061 68.7752 137.899 70.0654C136.737 71.3556 135.221 72.0007 133.35 72.0007V71.0815C134.834 71.0815 136.076 70.5331 137.076 69.4365C138.076 68.3075 138.883 66.7916 139.496 64.8885C140.109 62.9855 140.593 60.8245 140.948 58.4054C141.335 55.954 141.626 53.4059 141.819 50.761C142.013 48.1161 142.19 45.5035 142.352 42.9231C142.448 41.2136 142.255 40.1169 141.771 39.6331C141.287 39.117 140.174 38.8267 138.431 38.7622V37.7946C139.109 37.8269 139.916 37.8591 140.851 37.8914C141.787 37.9236 142.642 37.9397 143.416 37.9397C144.158 37.9397 144.868 37.9236 145.546 37.8914C146.256 37.8269 146.965 37.7946 147.675 37.7946C148.901 37.7946 150.015 37.8269 151.015 37.8914C152.015 37.9236 153.209 37.9397 154.596 37.9397C155.403 37.9397 156.274 37.9397 157.21 37.9397C158.178 37.9075 159.081 37.8914 159.92 37.8914C160.791 37.8591 161.517 37.8269 162.098 37.7946Z" fill="white"/>
<path d="M192.46 37.7946C192.331 39.2138 192.234 40.5846 192.169 41.9071C192.137 43.2295 192.121 44.2455 192.121 44.9551C192.121 45.6002 192.137 46.2131 192.169 46.7937C192.202 47.3742 192.234 47.8581 192.266 48.2451H191.153C190.83 45.8905 190.33 44.0359 189.653 42.6812C188.975 41.2942 188.088 40.3266 186.991 39.7783C185.926 39.1977 184.668 38.9074 183.216 38.9074H181.231C180.263 38.9074 179.538 38.988 179.054 39.1493C178.602 39.3106 178.295 39.6331 178.134 40.1169C177.973 40.5685 177.892 41.3104 177.892 42.3425V67.5012C177.892 68.5011 177.973 69.2429 178.134 69.7268C178.295 70.2106 178.602 70.5331 179.054 70.6944C179.538 70.8557 180.263 70.9363 181.231 70.9363H183.603C185.055 70.9363 186.329 70.6299 187.426 70.017C188.556 69.372 189.507 68.2914 190.282 66.7754C191.088 65.2595 191.701 63.2113 192.121 60.6309H193.234C193.137 61.6631 193.089 63.0178 193.089 64.695C193.089 65.4369 193.105 66.4852 193.137 67.8399C193.169 69.1946 193.266 70.5976 193.428 72.0491C191.782 71.9846 189.927 71.9523 187.862 71.9523C185.797 71.9201 183.958 71.9039 182.345 71.9039C181.248 71.9039 179.796 71.9039 177.989 71.9039C176.182 71.9039 174.262 71.9201 172.229 71.9523C170.197 71.9523 168.309 71.9846 166.567 72.0491V71.0815C167.599 71.0169 168.374 70.8879 168.89 70.6944C169.406 70.5009 169.745 70.1138 169.906 69.5332C170.1 68.9526 170.197 68.0818 170.197 66.9206V42.9231C170.197 41.7297 170.1 40.8588 169.906 40.3105C169.745 39.7299 169.39 39.3428 168.842 39.1493C168.325 38.9235 167.567 38.7945 166.567 38.7622V37.7946C168.309 37.8269 170.197 37.8591 172.229 37.8914C174.262 37.9236 176.182 37.9397 177.989 37.9397C179.796 37.9397 181.248 37.9397 182.345 37.9397C183.829 37.9397 185.507 37.9397 187.378 37.9397C189.282 37.9075 190.975 37.8591 192.46 37.7946ZM184.91 54.3413C184.91 54.3413 184.91 54.5025 184.91 54.8251C184.91 55.1476 184.91 55.3089 184.91 55.3089H176.44C176.44 55.3089 176.44 55.1476 176.44 54.8251C176.44 54.5025 176.44 54.3413 176.44 54.3413H184.91ZM186.313 47.9548C186.184 49.7933 186.12 51.1964 186.12 52.1641C186.152 53.1317 186.168 54.0187 186.168 54.8251C186.168 55.6314 186.184 56.5185 186.216 57.4861C186.249 58.4537 186.329 59.8568 186.458 61.6953H185.345C185.184 60.5664 184.877 59.5181 184.426 58.5505C184.006 57.5829 183.393 56.8087 182.587 56.2282C181.78 55.6153 180.731 55.3089 179.441 55.3089V54.3413C180.731 54.3413 181.764 53.9865 182.538 53.2769C183.313 52.5673 183.909 51.7286 184.329 50.761C184.748 49.7611 185.039 48.8257 185.2 47.9548H186.313Z" fill="white"/>
<path d="M216.939 56.9539V60.9696H199.467V56.9539H216.939Z" fill="white"/>
<path d="M254.67 37.1172C257.864 37.1172 260.655 37.8107 263.042 39.1977C265.462 40.5846 267.334 42.5844 268.657 45.1971C270.012 47.7774 270.689 50.9223 270.689 54.6316C270.689 58.2441 269.996 61.405 268.608 64.1144C267.221 66.8238 265.317 68.9365 262.897 70.4525C260.51 71.9685 257.751 72.7264 254.621 72.7264C251.395 72.7264 248.588 72.033 246.2 70.646C243.813 69.2591 241.941 67.2593 240.586 64.6466C239.263 62.034 238.602 58.8892 238.602 55.2121C238.602 51.5996 239.279 48.4387 240.634 45.7293C242.022 43.0199 243.925 40.9072 246.345 39.3912C248.765 37.8752 251.54 37.1172 254.67 37.1172ZM242.328 54.438V55.4057H230.084V54.438H242.328ZM254.476 37.9881C252.863 37.9881 251.459 38.7139 250.266 40.1653C249.104 41.6168 248.201 43.6166 247.555 46.1647C246.942 48.7128 246.636 51.6641 246.636 55.0186C246.636 58.4376 246.991 61.4212 247.7 63.9693C248.443 66.4852 249.427 68.4366 250.653 69.8235C251.911 71.1782 253.282 71.8556 254.766 71.8556C256.38 71.8556 257.767 71.1298 258.929 69.6784C260.122 68.2269 261.042 66.2271 261.687 63.679C262.333 61.0986 262.655 58.1473 262.655 54.8251C262.655 51.3738 262.284 48.3903 261.542 45.8744C260.8 43.3585 259.816 41.4233 258.59 40.0686C257.364 38.6816 255.993 37.9881 254.476 37.9881ZM237.101 37.7946V38.7622C236.069 38.7945 235.278 38.9235 234.73 39.1493C234.214 39.3428 233.875 39.7299 233.714 40.3105C233.552 40.8588 233.472 41.7297 233.472 42.9231V66.9206C233.472 68.0818 233.552 68.9526 233.714 69.5332C233.907 70.1138 234.262 70.5009 234.778 70.6944C235.295 70.8879 236.069 71.0169 237.101 71.0815V72.0491C236.23 71.9846 235.133 71.9523 233.81 71.9523C232.488 71.9201 231.149 71.9039 229.793 71.9039C228.212 71.9039 226.744 71.9201 225.389 71.9523C224.066 71.9523 222.985 71.9846 222.147 72.0491V71.0815C223.179 71.0169 223.953 70.8879 224.47 70.6944C224.986 70.5009 225.325 70.1138 225.486 69.5332C225.68 68.9526 225.776 68.0818 225.776 66.9206V42.9231C225.776 41.7297 225.68 40.8588 225.486 40.3105C225.325 39.7299 224.97 39.3428 224.421 39.1493C223.905 38.9235 223.147 38.7945 222.147 38.7622V37.7946C222.985 37.8269 224.066 37.8591 225.389 37.8914C226.744 37.9236 228.212 37.9397 229.793 37.9397C231.149 37.9397 232.488 37.9236 233.81 37.8914C235.133 37.8591 236.23 37.8269 237.101 37.7946Z" fill="white"/>
<path d="M275.009 37.7946C275.816 37.8269 276.897 37.8591 278.252 37.8914C279.64 37.9236 281.011 37.9397 282.366 37.9397C283.915 37.9397 285.415 37.9236 286.867 37.8914C288.319 37.8591 289.351 37.843 289.964 37.843C294.449 37.843 297.805 38.73 300.031 40.504C302.257 42.278 303.37 44.5681 303.37 47.3742C303.37 48.5354 303.145 49.7611 302.693 51.0513C302.241 52.3092 301.467 53.4865 300.37 54.5832C299.305 55.6476 297.837 56.5185 295.966 57.1958C294.094 57.8732 291.739 58.2118 288.9 58.2118H283.963V57.2442H288.416C290.319 57.2442 291.755 56.8087 292.723 55.9379C293.723 55.067 294.401 53.922 294.756 52.5027C295.143 51.0835 295.336 49.5514 295.336 47.9064C295.336 44.8423 294.885 42.5522 293.981 41.0362C293.078 39.5202 291.529 38.7622 289.335 38.7622C288.077 38.7622 287.254 39.0364 286.867 39.5847C286.512 40.1331 286.335 41.2459 286.335 42.9231V66.6303C286.335 67.8882 286.464 68.8236 286.722 69.4365C286.98 70.0493 287.48 70.4525 288.222 70.646C288.964 70.8395 290.061 70.9524 291.513 70.9847V72.0491C290.513 72.0168 289.222 71.9846 287.641 71.9523C286.06 71.9201 284.399 71.9039 282.656 71.9039C281.269 71.9039 279.914 71.9201 278.591 71.9523C277.268 71.9846 276.074 72.0168 275.009 72.0491V71.0815C276.042 71.0169 276.816 70.8879 277.333 70.6944C277.849 70.5009 278.188 70.1138 278.349 69.5332C278.543 68.9526 278.639 68.0818 278.639 66.9206V42.9231C278.639 41.7297 278.543 40.8588 278.349 40.3105C278.188 39.7299 277.833 39.3428 277.284 39.1493C276.768 38.9235 276.01 38.7945 275.009 38.7622V37.7946Z" fill="white"/>
<path d="M332.638 37.7946C332.509 39.2138 332.413 40.5846 332.348 41.9071C332.316 43.2295 332.3 44.2455 332.3 44.9551C332.3 45.6002 332.316 46.2131 332.348 46.7937C332.38 47.3742 332.413 47.8581 332.445 48.2451H331.332C331.009 45.8905 330.509 44.0359 329.831 42.6812C329.154 41.2942 328.267 40.3266 327.17 39.7783C326.105 39.1977 324.846 38.9074 323.395 38.9074H321.41C320.442 38.9074 319.716 38.988 319.232 39.1493C318.781 39.3106 318.474 39.6331 318.313 40.1169C318.151 40.5685 318.071 41.3104 318.071 42.3425V67.5012C318.071 68.5011 318.151 69.2429 318.313 69.7268C318.474 70.2106 318.781 70.5331 319.232 70.6944C319.716 70.8557 320.442 70.9363 321.41 70.9363H323.782C325.234 70.9363 326.508 70.6299 327.605 70.017C328.734 69.372 329.686 68.2914 330.461 66.7754C331.267 65.2595 331.88 63.2113 332.3 60.6309H333.413C333.316 61.6631 333.268 63.0178 333.268 64.695C333.268 65.4369 333.284 66.4852 333.316 67.8399C333.348 69.1946 333.445 70.5976 333.606 72.0491C331.961 71.9846 330.106 71.9523 328.041 71.9523C325.976 71.9201 324.137 71.9039 322.523 71.9039C321.426 71.9039 319.974 71.9039 318.168 71.9039C316.361 71.9039 314.441 71.9201 312.408 71.9523C310.376 71.9523 308.488 71.9846 306.746 72.0491V71.0815C307.778 71.0169 308.553 70.8879 309.069 70.6944C309.585 70.5009 309.924 70.1138 310.085 69.5332C310.279 68.9526 310.376 68.0818 310.376 66.9206V42.9231C310.376 41.7297 310.279 40.8588 310.085 40.3105C309.924 39.7299 309.569 39.3428 309.02 39.1493C308.504 38.9235 307.746 38.7945 306.746 38.7622V37.7946C308.488 37.8269 310.376 37.8591 312.408 37.8914C314.441 37.9236 316.361 37.9397 318.168 37.9397C319.974 37.9397 321.426 37.9397 322.523 37.9397C324.008 37.9397 325.685 37.9397 327.557 37.9397C329.46 37.9075 331.154 37.8591 332.638 37.7946ZM325.088 54.3413C325.088 54.3413 325.088 54.5025 325.088 54.8251C325.088 55.1476 325.088 55.3089 325.088 55.3089H316.619C316.619 55.3089 316.619 55.1476 316.619 54.8251C316.619 54.5025 316.619 54.3413 316.619 54.3413H325.088ZM326.492 47.9548C326.363 49.7933 326.298 51.1964 326.298 52.1641C326.331 53.1317 326.347 54.0187 326.347 54.8251C326.347 55.6314 326.363 56.5185 326.395 57.4861C326.427 58.4537 326.508 59.8568 326.637 61.6953H325.524C325.363 60.5664 325.056 59.5181 324.604 58.5505C324.185 57.5829 323.572 56.8087 322.765 56.2282C321.959 55.6153 320.91 55.3089 319.62 55.3089V54.3413C320.91 54.3413 321.943 53.9865 322.717 53.2769C323.491 52.5673 324.088 51.7286 324.508 50.761C324.927 49.7611 325.217 48.8257 325.379 47.9548H326.492Z" fill="white"/>
<path d="M353.342 37.7946V38.7622C352.31 38.7945 351.519 38.9235 350.971 39.1493C350.455 39.3428 350.116 39.7299 349.955 40.3105C349.793 40.8588 349.713 41.7297 349.713 42.9231V66.9206C349.713 68.0818 349.793 68.9526 349.955 69.5332C350.148 70.1138 350.503 70.5009 351.019 70.6944C351.536 70.8879 352.31 71.0169 353.342 71.0815V72.0491C352.471 71.9846 351.374 71.9523 350.051 71.9523C348.728 71.9201 347.389 71.9039 346.034 71.9039C344.486 71.9039 343.018 71.9201 341.63 71.9523C340.275 71.9523 339.194 71.9846 338.388 72.0491V71.0815C339.42 71.0169 340.194 70.8879 340.711 70.6944C341.227 70.5009 341.566 70.1138 341.727 69.5332C341.921 68.9526 342.017 68.0818 342.017 66.9206V42.9231C342.017 41.7297 341.921 40.8588 341.727 40.3105C341.566 39.7299 341.211 39.3428 340.662 39.1493C340.146 38.9235 339.388 38.7945 338.388 38.7622V37.7946C339.194 37.8269 340.275 37.8591 341.63 37.8914C343.018 37.9236 344.486 37.9397 346.034 37.9397C347.389 37.9397 348.728 37.9236 350.051 37.8914C351.374 37.8591 352.471 37.8269 353.342 37.7946ZM351.116 53.7607C353.697 53.7607 355.94 53.9542 357.843 54.3413C359.779 54.6961 361.328 55.3573 362.489 56.3249C363.683 57.2603 364.49 58.6473 364.909 60.4858L366.313 66.969C366.571 68.2914 366.861 69.2107 367.184 69.7268C367.507 70.2106 367.991 70.4525 368.636 70.4525C369.023 70.4202 369.346 70.3235 369.604 70.1622C369.894 69.9687 370.201 69.6945 370.523 69.3397L371.201 69.9203C370.33 70.8879 369.394 71.5975 368.394 72.0491C367.394 72.5007 366.184 72.7264 364.764 72.7264C363.022 72.7264 361.586 72.3716 360.457 71.662C359.327 70.9202 358.585 69.5332 358.23 67.5012L356.924 60.0987C356.698 58.8085 356.359 57.7603 355.907 56.9539C355.488 56.1475 354.843 55.5508 353.972 55.1638C353.1 54.7767 351.89 54.5832 350.342 54.5832H348.454V53.7607H351.116ZM349.519 54.5832V53.7607C350.906 53.7284 352.165 53.3575 353.294 52.6479C354.423 51.906 355.633 50.7771 356.924 49.2611L359.779 45.826C361.038 44.3746 361.764 43.1328 361.957 42.1006C362.151 41.0362 361.941 40.2137 361.328 39.6331C360.715 39.0525 359.763 38.7461 358.472 38.7139V37.7946C359.666 37.8269 360.796 37.8591 361.86 37.8914C362.925 37.9236 364.167 37.9397 365.587 37.9397C367.491 37.9397 369.023 37.8914 370.185 37.7946V38.7139C369.12 38.9396 368.007 39.3912 366.845 40.0686C365.684 40.7459 364.441 41.8426 363.119 43.3585L353.536 54.5832H349.519Z" fill="white"/>
<path d="M390.953 37.1172C393.083 37.1172 394.825 37.4398 396.18 38.0849C397.568 38.6977 398.794 39.4235 399.858 40.2621C400.504 40.7459 400.988 40.8104 401.31 40.4556C401.665 40.0686 401.907 39.1816 402.036 37.7946H403.149C403.085 39.0525 403.036 40.5846 403.004 42.3909C402.972 44.1649 402.956 46.5356 402.956 49.5031H401.843C401.681 48.0193 401.472 46.7614 401.214 45.7293C400.955 44.6649 400.6 43.7295 400.149 42.9231C399.697 42.1167 399.052 41.391 398.213 40.7459C397.406 39.9395 396.471 39.3428 395.406 38.9558C394.341 38.5687 393.228 38.3752 392.066 38.3752C390.324 38.3752 388.84 38.8429 387.614 39.7783C386.388 40.6814 385.388 41.9232 384.613 43.5037C383.871 45.0842 383.323 46.8743 382.968 48.8741C382.613 50.8416 382.435 52.8898 382.435 55.0186C382.435 57.1797 382.613 59.2601 382.968 61.2599C383.355 63.2274 383.936 64.9853 384.71 66.5335C385.517 68.0818 386.549 69.3074 387.807 70.2106C389.066 71.1137 390.55 71.5653 392.26 71.5653C393.325 71.5653 394.389 71.3717 395.454 70.9847C396.551 70.5654 397.487 69.9687 398.261 69.1946C399.52 68.2269 400.375 67.0335 400.826 65.6143C401.278 64.1628 401.617 62.2437 401.843 59.8568H402.956C402.956 62.921 402.972 65.4046 403.004 67.3077C403.036 69.1784 403.085 70.7589 403.149 72.0491H402.036C401.907 70.6621 401.681 69.7913 401.359 69.4365C401.068 69.0817 400.568 69.13 399.858 69.5816C398.665 70.4202 397.39 71.1621 396.035 71.8072C394.712 72.42 393.002 72.7264 390.905 72.7264C387.485 72.7264 384.484 72.033 381.903 70.646C379.354 69.2591 377.37 67.2593 375.95 64.6466C374.53 62.034 373.821 58.8892 373.821 55.2121C373.821 51.5996 374.546 48.4387 375.998 45.7293C377.483 43.0199 379.499 40.9072 382.048 39.3912C384.629 37.8752 387.598 37.1172 390.953 37.1172Z" fill="white"/>
<path d="M12.4001 111.44C13.2134 111.44 13.9467 111.627 14.6001 112C15.2534 112.373 15.7734 112.96 16.1601 113.76C16.5467 114.547 16.7401 115.58 16.7401 116.86C16.7401 118.14 16.5467 119.18 16.1601 119.98C15.7734 120.767 15.2534 121.347 14.6001 121.72C13.9467 122.093 13.2134 122.28 12.4001 122.28C11.6001 122.28 10.8667 122.093 10.2001 121.72C9.54675 121.347 9.02675 120.767 8.64008 119.98C8.25341 119.18 8.06008 118.14 8.06008 116.86C8.06008 115.58 8.25341 114.547 8.64008 113.76C9.02675 112.96 9.54675 112.373 10.2001 112C10.8667 111.627 11.6001 111.44 12.4001 111.44ZM7.22008 111.72V112.14C6.74008 112.14 6.40008 112.24 6.20008 112.44C6.00008 112.64 5.90008 113.02 5.90008 113.58V120.14C5.90008 120.7 6.01341 121.08 6.24008 121.28C6.48008 121.48 6.87341 121.58 7.42008 121.58V122C7.19341 121.987 6.84008 121.973 6.36008 121.96C5.88008 121.933 5.42008 121.92 4.98008 121.92C4.54008 121.92 4.08674 121.933 3.62008 121.96C3.15341 121.973 2.80674 121.987 2.58008 122V121.58C3.12674 121.58 3.51341 121.48 3.74008 121.28C3.98008 121.08 4.10008 120.7 4.10008 120.14V113.58C4.10008 113.02 3.98008 112.64 3.74008 112.44C3.51341 112.24 3.12674 112.14 2.58008 112.14V111.72C2.80674 111.733 3.15341 111.753 3.62008 111.78C4.08674 111.793 4.54008 111.8 4.98008 111.8C5.42008 111.8 5.84675 111.793 6.26008 111.78C6.68675 111.753 7.00675 111.733 7.22008 111.72ZM9.06008 116.66V117.06H5.08008V116.66H9.06008ZM12.4001 111.84C11.9334 111.84 11.5201 112.013 11.1601 112.36C10.8001 112.693 10.5134 113.227 10.3001 113.96C10.1001 114.693 10.0001 115.66 10.0001 116.86C10.0001 118.047 10.1001 119.013 10.3001 119.76C10.5134 120.493 10.8001 121.033 11.1601 121.38C11.5201 121.713 11.9334 121.88 12.4001 121.88C12.8667 121.88 13.2801 121.713 13.6401 121.38C14.0001 121.033 14.2801 120.493 14.4801 119.76C14.6934 119.013 14.8001 118.047 14.8001 116.86C14.8001 115.66 14.6934 114.693 14.4801 113.96C14.2801 113.227 14.0001 112.693 13.6401 112.36C13.2801 112.013 12.8667 111.84 12.4001 111.84Z" fill="white"/>
<path d="M37.0632 111.48V123.76C37.0632 124.333 37.2299 124.713 37.5632 124.9C37.9099 125.1 38.3832 125.2 38.9832 125.2V125.62C38.6899 125.607 38.2832 125.587 37.7632 125.56C37.2432 125.547 36.6899 125.54 36.1032 125.54C35.6899 125.54 35.2765 125.547 34.8632 125.56C34.4632 125.587 34.1565 125.607 33.9432 125.62V125.2C34.4232 125.2 34.7632 125.113 34.9632 124.94C35.1632 124.767 35.2632 124.44 35.2632 123.96V113.88C35.2632 113.28 35.1565 112.84 34.9432 112.56C34.7299 112.267 34.3299 112.12 33.7432 112.12V111.7C34.1699 111.74 34.5832 111.76 34.9832 111.76C35.3699 111.76 35.7365 111.74 36.0832 111.7C36.4432 111.647 36.7699 111.573 37.0632 111.48ZM40.2632 111.42C41.3165 111.42 42.1965 111.847 42.9032 112.7C43.6232 113.54 43.9832 114.767 43.9832 116.38C43.9832 117.34 43.8232 118.273 43.5032 119.18C43.1965 120.087 42.7099 120.833 42.0432 121.42C41.3765 121.993 40.4965 122.28 39.4032 122.28C38.7765 122.28 38.2299 122.133 37.7632 121.84C37.3099 121.547 37.0032 121.193 36.8432 120.78L37.0432 120.5C37.2299 120.873 37.4965 121.187 37.8432 121.44C38.2032 121.693 38.6499 121.82 39.1832 121.82C39.9299 121.82 40.5099 121.587 40.9232 121.12C41.3365 120.653 41.6232 120.033 41.7832 119.26C41.9565 118.473 42.0432 117.607 42.0432 116.66C42.0432 115.593 41.9565 114.72 41.7832 114.04C41.6099 113.36 41.3499 112.853 41.0032 112.52C40.6565 112.187 40.2299 112.02 39.7232 112.02C39.0699 112.02 38.4765 112.293 37.9432 112.84C37.4099 113.373 37.0699 114.187 36.9232 115.28L36.6832 115C36.8299 113.867 37.2299 112.987 37.8832 112.36C38.5499 111.733 39.3432 111.42 40.2632 111.42Z" fill="white"/>
<path d="M72.4643 111.72V112.14C71.9176 112.14 71.5243 112.24 71.2843 112.44C71.0576 112.64 70.9443 113.02 70.9443 113.58V120.14C70.9443 120.7 71.0576 121.08 71.2843 121.28C71.5243 121.48 71.9176 121.58 72.4643 121.58V122C72.2376 121.987 71.891 121.973 71.4243 121.96C70.9576 121.933 70.5043 121.92 70.0643 121.92C69.6243 121.92 69.191 121.933 68.7643 121.96C68.351 121.973 68.0376 121.987 67.8243 122V121.58C68.3043 121.58 68.6443 121.48 68.8443 121.28C69.0443 121.08 69.1443 120.7 69.1443 120.14V113.58C69.1443 113.02 69.0443 112.64 68.8443 112.44C68.6443 112.24 68.3043 112.14 67.8243 112.14V111.72C68.0376 111.733 68.351 111.753 68.7643 111.78C69.191 111.793 69.6243 111.8 70.0643 111.8C70.5043 111.8 70.9576 111.793 71.4243 111.78C71.891 111.753 72.2376 111.733 72.4643 111.72ZM65.7443 111.72V112.14C65.2643 112.14 64.9243 112.24 64.7243 112.44C64.5243 112.64 64.4243 113.02 64.4243 113.58V120.14C64.4243 120.7 64.5243 121.08 64.7243 121.28C64.9243 121.48 65.2643 121.58 65.7443 121.58V122C65.531 121.987 65.211 121.973 64.7843 121.96C64.371 121.933 63.9443 121.92 63.5043 121.92C63.0643 121.92 62.611 121.933 62.1443 121.96C61.6776 121.973 61.331 121.987 61.1043 122V121.58C61.651 121.58 62.0376 121.48 62.2643 121.28C62.5043 121.08 62.6243 120.7 62.6243 120.14V113.58C62.6243 113.02 62.5043 112.64 62.2643 112.44C62.0376 112.24 61.651 112.14 61.1043 112.14V111.72C61.331 111.733 61.6776 111.753 62.1443 111.78C62.611 111.793 63.0643 111.8 63.5043 111.8C63.9443 111.8 64.371 111.793 64.7843 111.78C65.211 111.753 65.531 111.733 65.7443 111.72ZM69.3443 113.12L69.6643 113.34L64.1643 120.94L63.8443 120.7L69.3443 113.12Z" fill="white"/>
<path d="M98.4638 111.72V112.14C97.9172 112.14 97.5238 112.24 97.2838 112.44C97.0572 112.64 96.9438 113.02 96.9438 113.58V120.14C96.9438 120.7 97.0505 121.08 97.2638 121.28C97.4905 121.48 97.9638 121.58 98.6838 121.58C98.6305 122.047 98.5905 122.493 98.5638 122.92C98.5505 123.347 98.5438 123.673 98.5438 123.9C98.5438 124.42 98.5638 124.833 98.6038 125.14H98.1438C98.0772 124.353 97.9838 123.72 97.8638 123.24C97.7572 122.773 97.5638 122.433 97.2838 122.22C97.0172 122.02 96.6105 121.92 96.0638 121.92C95.6372 121.92 95.2372 121.927 94.8638 121.94C94.5038 121.953 94.0572 121.967 93.5238 121.98C93.0038 121.993 92.2972 122 91.4038 122C90.8572 122 90.4438 122.093 90.1638 122.28C89.8972 122.48 89.7038 122.807 89.5838 123.26C89.4772 123.727 89.3905 124.353 89.3238 125.14H88.8638C88.9038 124.833 88.9238 124.42 88.9238 123.9C88.9238 123.673 88.9105 123.347 88.8838 122.92C88.8705 122.493 88.8372 122.047 88.7838 121.58H93.8238C94.3038 121.58 94.6438 121.48 94.8438 121.28C95.0438 121.08 95.1438 120.7 95.1438 120.14V113.58C95.1438 113.02 95.0438 112.64 94.8438 112.44C94.6438 112.24 94.3038 112.14 93.8238 112.14H93.6438C93.1638 112.14 92.8372 112.24 92.6638 112.44C92.4905 112.64 92.3772 113.02 92.3238 113.58C92.2705 114.3 92.1972 115.06 92.1038 115.86C92.0238 116.647 91.9105 117.413 91.7638 118.16C91.6172 118.907 91.4172 119.58 91.1638 120.18C91.0172 120.54 90.8238 120.887 90.5838 121.22C90.3438 121.54 90.0105 121.74 89.5838 121.82L89.1638 121.58C89.5905 121.58 89.9438 121.427 90.2238 121.12C90.5038 120.8 90.7105 120.453 90.8438 120.08C91.1772 119.213 91.4238 118.207 91.5838 117.06C91.7438 115.913 91.8705 114.753 91.9638 113.58C92.0038 113.02 91.8838 112.64 91.6038 112.44C91.3372 112.24 90.9305 112.14 90.3838 112.14V111.72C90.4905 111.733 90.6572 111.753 90.8838 111.78C91.1238 111.793 91.4105 111.8 91.7438 111.8C92.0772 111.8 92.4172 111.787 92.7638 111.76C93.1238 111.733 93.4905 111.72 93.8638 111.72C94.2372 111.72 94.5772 111.733 94.8838 111.76C95.2038 111.787 95.5905 111.8 96.0438 111.8C96.5105 111.8 96.9705 111.793 97.4238 111.78C97.8905 111.753 98.2372 111.733 98.4638 111.72Z" fill="white"/>
<path d="M126.672 111.72V112.14C126.125 112.14 125.732 112.24 125.492 112.44C125.265 112.64 125.152 113.02 125.152 113.58V120.14C125.152 120.7 125.265 121.08 125.492 121.28C125.732 121.48 126.125 121.58 126.672 121.58V122C126.445 121.987 126.099 121.973 125.632 121.96C125.165 121.933 124.712 121.92 124.272 121.92C123.832 121.92 123.399 121.933 122.972 121.96C122.559 121.973 122.245 121.987 122.032 122V121.58C122.512 121.58 122.852 121.48 123.052 121.28C123.252 121.08 123.352 120.7 123.352 120.14V113.58C123.352 113.02 123.252 112.64 123.052 112.44C122.852 112.24 122.512 112.14 122.032 112.14V111.72C122.245 111.733 122.559 111.753 122.972 111.78C123.399 111.793 123.832 111.8 124.272 111.8C124.712 111.8 125.165 111.793 125.632 111.78C126.099 111.753 126.445 111.733 126.672 111.72ZM119.952 111.72V112.14C119.472 112.14 119.132 112.24 118.932 112.44C118.732 112.64 118.632 113.02 118.632 113.58V120.14C118.632 120.7 118.732 121.08 118.932 121.28C119.132 121.48 119.472 121.58 119.952 121.58V122C119.739 121.987 119.419 121.973 118.992 121.96C118.579 121.933 118.152 121.92 117.712 121.92C117.272 121.92 116.819 121.933 116.352 121.96C115.885 121.973 115.539 121.987 115.312 122V121.58C115.859 121.58 116.245 121.48 116.472 121.28C116.712 121.08 116.832 120.7 116.832 120.14V113.58C116.832 113.02 116.712 112.64 116.472 112.44C116.245 112.24 115.859 112.14 115.312 112.14V111.72C115.539 111.733 115.885 111.753 116.352 111.78C116.819 111.793 117.272 111.8 117.712 111.8C118.152 111.8 118.579 111.793 118.992 111.78C119.419 111.753 119.739 111.733 119.952 111.72ZM123.552 113.12L123.872 113.34L118.372 120.94L118.052 120.7L123.552 113.12Z" fill="white"/>
<path d="M153.572 111.72V112.14C153.025 112.14 152.632 112.24 152.392 112.44C152.165 112.64 152.052 113.02 152.052 113.58V120.14C152.052 120.7 152.165 121.08 152.392 121.28C152.632 121.48 153.025 121.58 153.572 121.58V122C153.345 121.987 153.012 121.973 152.572 121.96C152.132 121.933 151.638 121.92 151.092 121.92C150.558 121.92 150.005 121.933 149.432 121.96C148.872 121.973 148.438 121.987 148.132 122V121.58C148.798 121.58 149.318 121.473 149.692 121.26C150.065 121.033 150.252 120.593 150.252 119.94V113.58C150.252 113.02 150.152 112.64 149.952 112.44C149.752 112.24 149.412 112.14 148.932 112.14V111.72C149.145 111.733 149.458 111.753 149.872 111.78C150.298 111.793 150.732 111.8 151.172 111.8C151.612 111.8 152.065 111.793 152.532 111.78C152.998 111.753 153.345 111.733 153.572 111.72ZM147.792 111.72V112.14C147.312 112.14 146.972 112.24 146.772 112.44C146.572 112.64 146.472 113.02 146.472 113.58V115.14C146.472 115.607 146.498 116.013 146.552 116.36C146.618 116.707 146.772 116.973 147.012 117.16C147.252 117.347 147.638 117.44 148.172 117.44C148.598 117.44 149.005 117.387 149.392 117.28C149.778 117.16 150.098 117.007 150.352 116.82V117.24C150.085 117.427 149.672 117.613 149.112 117.8C148.565 117.987 147.998 118.08 147.412 118.08C146.945 118.08 146.532 118.013 146.172 117.88C145.825 117.733 145.545 117.547 145.332 117.32C145.078 117.053 144.905 116.707 144.812 116.28C144.718 115.853 144.672 115.327 144.672 114.7V113.58C144.672 113.02 144.552 112.64 144.312 112.44C144.085 112.24 143.698 112.14 143.152 112.14V111.72C143.378 111.733 143.725 111.753 144.192 111.78C144.658 111.793 145.112 111.8 145.552 111.8C145.992 111.8 146.418 111.793 146.832 111.78C147.258 111.753 147.578 111.733 147.792 111.72Z" fill="white"/>
<path d="M175.2 111.42C176.374 111.42 177.287 111.78 177.94 112.5C178.607 113.207 178.94 114.313 178.94 115.82H171.88L171.86 115.44H177.02C177.047 114.787 176.994 114.187 176.86 113.64C176.727 113.08 176.514 112.633 176.22 112.3C175.94 111.967 175.574 111.8 175.12 111.8C174.507 111.8 173.96 112.107 173.48 112.72C173.014 113.333 172.734 114.307 172.64 115.64L172.7 115.72C172.674 115.92 172.654 116.14 172.64 116.38C172.627 116.62 172.62 116.86 172.62 117.1C172.62 118.007 172.767 118.787 173.06 119.44C173.354 120.093 173.734 120.593 174.2 120.94C174.68 121.273 175.174 121.44 175.68 121.44C176.28 121.44 176.834 121.293 177.34 121C177.847 120.707 178.274 120.187 178.62 119.44L179.02 119.6C178.874 120.04 178.634 120.467 178.3 120.88C177.967 121.293 177.547 121.633 177.04 121.9C176.534 122.153 175.947 122.28 175.28 122.28C174.32 122.28 173.494 122.06 172.8 121.62C172.12 121.18 171.594 120.573 171.22 119.8C170.86 119.013 170.68 118.113 170.68 117.1C170.68 115.927 170.867 114.92 171.24 114.08C171.614 113.227 172.14 112.573 172.82 112.12C173.5 111.653 174.294 111.42 175.2 111.42Z" fill="white"/>
<path d="M201.057 111.42C201.484 111.42 201.897 111.473 202.297 111.58C202.697 111.687 203.057 111.847 203.377 112.06C203.684 112.26 203.917 112.493 204.077 112.76C204.237 113.013 204.317 113.293 204.317 113.6C204.317 113.96 204.217 114.24 204.017 114.44C203.817 114.627 203.564 114.72 203.257 114.72C202.964 114.72 202.704 114.633 202.477 114.46C202.264 114.287 202.157 114.04 202.157 113.72C202.157 113.413 202.237 113.167 202.397 112.98C202.571 112.793 202.771 112.673 202.997 112.62C202.864 112.38 202.624 112.18 202.277 112.02C201.944 111.86 201.584 111.78 201.197 111.78C200.864 111.78 200.531 111.86 200.197 112.02C199.864 112.18 199.557 112.447 199.277 112.82C198.997 113.18 198.771 113.68 198.597 114.32C198.424 114.947 198.337 115.733 198.337 116.68C198.337 117.853 198.471 118.787 198.737 119.48C199.004 120.173 199.351 120.673 199.777 120.98C200.217 121.273 200.697 121.42 201.217 121.42C201.737 121.42 202.264 121.267 202.797 120.96C203.331 120.653 203.771 120.12 204.117 119.36L204.497 119.5C204.364 119.927 204.144 120.36 203.837 120.8C203.531 121.227 203.131 121.58 202.637 121.86C202.144 122.14 201.537 122.28 200.817 122.28C199.991 122.28 199.244 122.067 198.577 121.64C197.911 121.213 197.377 120.607 196.977 119.82C196.591 119.02 196.397 118.073 196.397 116.98C196.397 115.887 196.591 114.927 196.977 114.1C197.377 113.26 197.931 112.607 198.637 112.14C199.344 111.66 200.151 111.42 201.057 111.42Z" fill="white"/>
<path d="M230.184 111.42C230.651 111.42 230.977 111.533 231.164 111.76C231.364 111.987 231.464 112.24 231.464 112.52C231.464 112.813 231.371 113.067 231.184 113.28C230.997 113.48 230.737 113.58 230.404 113.58C230.164 113.58 229.957 113.527 229.784 113.42C229.611 113.313 229.477 113.167 229.384 112.98C229.291 112.78 229.244 112.553 229.244 112.3C229.244 112.273 229.244 112.247 229.244 112.22C229.244 112.193 229.244 112.173 229.244 112.16C229.097 112.227 228.964 112.347 228.844 112.52C228.737 112.693 228.624 112.927 228.504 113.22C228.384 113.513 228.244 113.873 228.084 114.3C227.951 114.66 227.797 115.007 227.624 115.34C227.451 115.673 227.211 115.953 226.904 116.18C226.597 116.407 226.177 116.553 225.644 116.62L225.824 116.48C226.624 116.453 227.324 116.54 227.924 116.74C228.537 116.94 229.017 117.313 229.364 117.86C229.591 118.207 229.777 118.633 229.924 119.14C230.084 119.647 230.251 120.093 230.424 120.48C230.571 120.813 230.737 121.073 230.924 121.26C231.124 121.433 231.431 121.54 231.844 121.58V122C231.631 122.04 231.417 122.073 231.204 122.1C230.991 122.127 230.791 122.14 230.604 122.14C230.004 122.14 229.564 122 229.284 121.72C229.004 121.427 228.791 121.033 228.644 120.54C228.577 120.313 228.497 120.04 228.404 119.72C228.311 119.387 228.197 119.053 228.064 118.72C227.931 118.373 227.771 118.073 227.584 117.82C227.291 117.407 226.911 117.14 226.444 117.02C225.977 116.887 225.371 116.833 224.624 116.86V116.52C225.357 116.48 225.924 116.36 226.324 116.16C226.724 115.947 227.031 115.653 227.244 115.28C227.457 114.907 227.651 114.467 227.824 113.96C227.957 113.587 228.104 113.207 228.264 112.82C228.424 112.42 228.651 112.087 228.944 111.82C229.251 111.553 229.664 111.42 230.184 111.42ZM226.024 111.72V112.14C225.544 112.14 225.204 112.24 225.004 112.44C224.804 112.64 224.704 113.02 224.704 113.58V120.14C224.704 120.7 224.804 121.08 225.004 121.28C225.204 121.48 225.544 121.58 226.024 121.58V122C225.811 121.987 225.491 121.973 225.064 121.96C224.637 121.933 224.204 121.92 223.764 121.92C223.324 121.92 222.871 121.933 222.404 121.96C221.951 121.973 221.611 121.987 221.384 122V121.58C221.931 121.58 222.317 121.48 222.544 121.28C222.784 121.08 222.904 120.7 222.904 120.14V113.58C222.904 113.02 222.784 112.64 222.544 112.44C222.317 112.24 221.931 112.14 221.384 112.14V111.72C221.611 111.733 221.951 111.753 222.404 111.78C222.871 111.793 223.324 111.8 223.764 111.8C224.204 111.8 224.637 111.793 225.064 111.78C225.491 111.753 225.811 111.733 226.024 111.72Z" fill="white"/>
<path d="M253.036 111.42C253.89 111.42 254.656 111.607 255.336 111.98C256.016 112.353 256.556 112.94 256.956 113.74C257.37 114.54 257.576 115.58 257.576 116.86C257.576 118.14 257.37 119.18 256.956 119.98C256.556 120.767 256.016 121.347 255.336 121.72C254.656 122.093 253.89 122.28 253.036 122.28C252.196 122.28 251.43 122.093 250.736 121.72C250.056 121.347 249.51 120.767 249.096 119.98C248.696 119.18 248.496 118.14 248.496 116.86C248.496 115.58 248.696 114.54 249.096 113.74C249.51 112.94 250.056 112.353 250.736 111.98C251.43 111.607 252.196 111.42 253.036 111.42ZM253.036 111.82C252.276 111.82 251.65 112.213 251.156 113C250.676 113.787 250.436 115.073 250.436 116.86C250.436 118.647 250.676 119.933 251.156 120.72C251.65 121.493 252.276 121.88 253.036 121.88C253.796 121.88 254.416 121.493 254.896 120.72C255.39 119.933 255.636 118.647 255.636 116.86C255.636 115.073 255.39 113.787 254.896 113C254.416 112.213 253.796 111.82 253.036 111.82Z" fill="white"/>
<path d="M279.553 111.42C280.727 111.42 281.64 111.78 282.293 112.5C282.96 113.207 283.293 114.313 283.293 115.82H276.233L276.213 115.44H281.373C281.4 114.787 281.347 114.187 281.213 113.64C281.08 113.08 280.867 112.633 280.573 112.3C280.293 111.967 279.927 111.8 279.473 111.8C278.86 111.8 278.313 112.107 277.833 112.72C277.367 113.333 277.087 114.307 276.993 115.64L277.053 115.72C277.027 115.92 277.007 116.14 276.993 116.38C276.98 116.62 276.973 116.86 276.973 117.1C276.973 118.007 277.12 118.787 277.413 119.44C277.707 120.093 278.087 120.593 278.553 120.94C279.033 121.273 279.527 121.44 280.033 121.44C280.633 121.44 281.187 121.293 281.693 121C282.2 120.707 282.627 120.187 282.973 119.44L283.373 119.6C283.227 120.04 282.987 120.467 282.653 120.88C282.32 121.293 281.9 121.633 281.393 121.9C280.887 122.153 280.3 122.28 279.633 122.28C278.673 122.28 277.847 122.06 277.153 121.62C276.473 121.18 275.947 120.573 275.573 119.8C275.213 119.013 275.033 118.113 275.033 117.1C275.033 115.927 275.22 114.92 275.593 114.08C275.967 113.227 276.493 112.573 277.173 112.12C277.853 111.653 278.647 111.42 279.553 111.42Z" fill="white"/>
<path d="M330.511 106.28L330.811 106.36C330.678 106.8 330.524 107.2 330.351 107.56C330.178 107.92 329.958 108.207 329.691 108.42C329.478 108.593 329.204 108.74 328.871 108.86C328.538 108.98 328.118 109.053 327.611 109.08C327.398 109.093 327.091 109.113 326.691 109.14C326.291 109.167 325.918 109.213 325.571 109.28C325.024 109.373 324.558 109.54 324.171 109.78C323.784 110.007 323.458 110.34 323.191 110.78C322.938 111.22 322.731 111.793 322.571 112.5C322.411 113.207 322.278 114.073 322.171 115.1L323.171 116.32L322.031 115.76C322.231 114.747 322.544 113.96 322.971 113.4C323.411 112.827 323.924 112.42 324.511 112.18C325.098 111.94 325.718 111.82 326.371 111.82C327.424 111.82 328.264 112.06 328.891 112.54C329.518 113.007 329.971 113.62 330.251 114.38C330.544 115.127 330.691 115.933 330.691 116.8C330.691 117.893 330.491 118.853 330.091 119.68C329.691 120.507 329.131 121.147 328.411 121.6C327.704 122.053 326.878 122.28 325.931 122.28C325.091 122.28 324.351 122.073 323.711 121.66C323.071 121.233 322.571 120.54 322.211 119.58C321.851 118.62 321.671 117.347 321.671 115.76C321.671 115.533 321.684 115.147 321.711 114.6C321.738 114.04 321.798 113.413 321.891 112.72C321.998 112.027 322.158 111.353 322.371 110.7C322.598 110.033 322.911 109.48 323.311 109.04C323.578 108.747 323.911 108.5 324.311 108.3C324.711 108.087 325.178 107.933 325.711 107.84C326.124 107.773 326.558 107.727 327.011 107.7C327.464 107.673 327.818 107.653 328.071 107.64C328.818 107.587 329.358 107.453 329.691 107.24C330.024 107.027 330.298 106.707 330.511 106.28ZM326.291 112.24C325.838 112.24 325.404 112.387 324.991 112.68C324.578 112.96 324.238 113.44 323.971 114.12C323.704 114.8 323.571 115.747 323.571 116.96C323.571 118.147 323.698 119.107 323.951 119.84C324.218 120.56 324.558 121.08 324.971 121.4C325.384 121.72 325.818 121.88 326.271 121.88C326.791 121.88 327.211 121.713 327.531 121.38C327.864 121.033 328.118 120.6 328.291 120.08C328.464 119.547 328.584 118.987 328.651 118.4C328.718 117.8 328.751 117.247 328.751 116.74C328.751 115.113 328.518 113.96 328.051 113.28C327.598 112.587 327.011 112.24 326.291 112.24Z" fill="white"/>
<path d="M357.622 111.44C358.435 111.44 359.169 111.627 359.822 112C360.475 112.373 360.995 112.96 361.382 113.76C361.769 114.547 361.962 115.58 361.962 116.86C361.962 118.14 361.769 119.18 361.382 119.98C360.995 120.767 360.475 121.347 359.822 121.72C359.169 122.093 358.435 122.28 357.622 122.28C356.822 122.28 356.089 122.093 355.422 121.72C354.769 121.347 354.249 120.767 353.862 119.98C353.475 119.18 353.282 118.14 353.282 116.86C353.282 115.58 353.475 114.547 353.862 113.76C354.249 112.96 354.769 112.373 355.422 112C356.089 111.627 356.822 111.44 357.622 111.44ZM352.442 111.72V112.14C351.962 112.14 351.622 112.24 351.422 112.44C351.222 112.64 351.122 113.02 351.122 113.58V120.14C351.122 120.7 351.235 121.08 351.462 121.28C351.702 121.48 352.095 121.58 352.642 121.58V122C352.415 121.987 352.062 121.973 351.582 121.96C351.102 121.933 350.642 121.92 350.202 121.92C349.762 121.92 349.309 121.933 348.842 121.96C348.375 121.973 348.029 121.987 347.802 122V121.58C348.349 121.58 348.735 121.48 348.962 121.28C349.202 121.08 349.322 120.7 349.322 120.14V113.58C349.322 113.02 349.202 112.64 348.962 112.44C348.735 112.24 348.349 112.14 347.802 112.14V111.72C348.029 111.733 348.375 111.753 348.842 111.78C349.309 111.793 349.762 111.8 350.202 111.8C350.642 111.8 351.069 111.793 351.482 111.78C351.909 111.753 352.229 111.733 352.442 111.72ZM354.282 116.66V117.06H350.302V116.66H354.282ZM357.622 111.84C357.155 111.84 356.742 112.013 356.382 112.36C356.022 112.693 355.735 113.227 355.522 113.96C355.322 114.693 355.222 115.66 355.222 116.86C355.222 118.047 355.322 119.013 355.522 119.76C355.735 120.493 356.022 121.033 356.382 121.38C356.742 121.713 357.155 121.88 357.622 121.88C358.089 121.88 358.502 121.713 358.862 121.38C359.222 121.033 359.502 120.493 359.702 119.76C359.915 119.013 360.022 118.047 360.022 116.86C360.022 115.66 359.915 114.693 359.702 113.96C359.502 113.227 359.222 112.693 358.862 112.36C358.502 112.013 358.089 111.84 357.622 111.84Z" fill="white"/>
<path d="M382.285 111.48V123.76C382.285 124.333 382.452 124.713 382.785 124.9C383.132 125.1 383.605 125.2 384.205 125.2V125.62C383.912 125.607 383.505 125.587 382.985 125.56C382.465 125.547 381.912 125.54 381.325 125.54C380.912 125.54 380.498 125.547 380.085 125.56C379.685 125.587 379.378 125.607 379.165 125.62V125.2C379.645 125.2 379.985 125.113 380.185 124.94C380.385 124.767 380.485 124.44 380.485 123.96V113.88C380.485 113.28 380.378 112.84 380.165 112.56C379.952 112.267 379.552 112.12 378.965 112.12V111.7C379.392 111.74 379.805 111.76 380.205 111.76C380.592 111.76 380.958 111.74 381.305 111.7C381.665 111.647 381.992 111.573 382.285 111.48ZM385.485 111.42C386.538 111.42 387.418 111.847 388.125 112.7C388.845 113.54 389.205 114.767 389.205 116.38C389.205 117.34 389.045 118.273 388.725 119.18C388.418 120.087 387.932 120.833 387.265 121.42C386.598 121.993 385.718 122.28 384.625 122.28C383.998 122.28 383.452 122.133 382.985 121.84C382.532 121.547 382.225 121.193 382.065 120.78L382.265 120.5C382.452 120.873 382.718 121.187 383.065 121.44C383.425 121.693 383.872 121.82 384.405 121.82C385.152 121.82 385.732 121.587 386.145 121.12C386.558 120.653 386.845 120.033 387.005 119.26C387.178 118.473 387.265 117.607 387.265 116.66C387.265 115.593 387.178 114.72 387.005 114.04C386.832 113.36 386.572 112.853 386.225 112.52C385.878 112.187 385.452 112.02 384.945 112.02C384.292 112.02 383.698 112.293 383.165 112.84C382.632 113.373 382.292 114.187 382.145 115.28L381.905 115C382.052 113.867 382.452 112.987 383.105 112.36C383.772 111.733 384.565 111.42 385.485 111.42Z" fill="white"/>
<path d="M411.226 111.42C412.079 111.42 412.846 111.607 413.526 111.98C414.206 112.353 414.746 112.94 415.146 113.74C415.56 114.54 415.766 115.58 415.766 116.86C415.766 118.14 415.56 119.18 415.146 119.98C414.746 120.767 414.206 121.347 413.526 121.72C412.846 122.093 412.079 122.28 411.226 122.28C410.386 122.28 409.62 122.093 408.926 121.72C408.246 121.347 407.699 120.767 407.286 119.98C406.886 119.18 406.686 118.14 406.686 116.86C406.686 115.58 406.886 114.54 407.286 113.74C407.699 112.94 408.246 112.353 408.926 111.98C409.62 111.607 410.386 111.42 411.226 111.42ZM411.226 111.82C410.466 111.82 409.84 112.213 409.346 113C408.866 113.787 408.626 115.073 408.626 116.86C408.626 118.647 408.866 119.933 409.346 120.72C409.84 121.493 410.466 121.88 411.226 121.88C411.986 121.88 412.606 121.493 413.086 120.72C413.58 119.933 413.826 118.647 413.826 116.86C413.826 115.073 413.58 113.787 413.086 113C412.606 112.213 411.986 111.82 411.226 111.82Z" fill="white"/>
</svg>
