<svg width="250" height="76" viewBox="0 0 250 76" fill="none" xmlns="http://www.w3.org/2000/svg">
<path d="M38.3567 9C36.1163 9 32.3788 10.8241 31 11.7708L34.5324 14.5428C36.9452 12.6494 39.3908 10.42 44.9058 10.42C54.5571 10.42 60.3368 18.1514 60.5892 29.1963C60.6589 32.2464 60.6947 33.9608 60.5892 37.2432C60.0722 40.7144 59.7275 42.4501 58.004 45.7635C55.4251 50.7217 50.7655 53.9682 43.6994 53.6527C39.2238 53.4528 36.8056 51.9171 34.5652 50.0237L31.1183 52.2326C38.1844 57.755 49.5591 56.1772 54.7295 53.9682C61.1688 51.2171 67.483 43.8701 68 38.5055V25.5672C68 17.5203 55.7635 9 51.7996 9H38.3567Z" fill="black" stroke="black"/>
<rect x="1.5" y="5.93994" width="67.355" height="52.3277" rx="1.5" stroke="black" stroke-width="3"/>
<rect x="76.6367" y="5.93982" width="171.863" height="52.3277" rx="1.5" stroke="black" stroke-width="3"/>
<rect x="71.3789" width="2.73223" height="62.8414" fill="black"/>
<rect x="1" y="8" width="8" height="48" fill="black"/>
<path d="M18.686 8H9V11.1126H18.686C21.065 11.1126 23.2607 11.7679 25.993 13.4061C31.4575 16.6826 34.8973 23.5631 35.3391 27.8225C36.0188 34.3754 35.4326 40.1092 32.4503 44.5324C30.2412 47.8089 25.3132 53.0512 18.686 53.3788H9V56H18.686C25.3132 56 30.5811 54.198 36.0188 49.9386C40.3005 46.5847 42.9514 40.9283 43.6656 35.8498C45.0251 26.1843 42.1363 20.2867 36.8685 14.3891C32.1406 9.09601 21.7447 8 18.686 8Z" fill="black"/>
<path d="M11.4401 11.7828C11.4401 11.0997 11.8809 10.3779 12.4647 10.0751H8.53711V54.1324H12.4647C11.9524 53.6201 11.2693 52.254 11.2693 51.5709L11.4401 32.6161H21.686C21.686 40.4712 25.097 45.7432 28 49.5L32 44.5C29 40 28 28.5 32 19L28 14.5C24.9262 17.5738 21.686 24.2486 21.686 30.3961H11.4401V11.7828Z" fill="black" stroke="black"/>
<path d="M96.9493 22.6045V23.1832C96.2932 23.2025 95.7914 23.2796 95.4441 23.4147C95.116 23.5304 94.8941 23.7619 94.7783 24.1092C94.6626 24.4371 94.6047 24.958 94.6047 25.6717V40.0243C94.6047 41.0854 94.7397 41.7702 95.0099 42.0789C95.2801 42.3682 95.8686 42.5129 96.7756 42.5129H97.644C97.5668 43.2653 97.5089 43.9887 97.4703 44.6832C97.451 45.3776 97.4414 45.9081 97.4414 46.2747C97.4414 47.0463 97.4703 47.6733 97.5282 48.1556H96.8624C96.6695 46.8823 96.3607 45.8696 95.9362 45.1172C95.5116 44.3841 94.9617 43.8633 94.2863 43.5546C93.6301 43.246 92.8486 43.0916 91.9416 43.0916H84.9367C84.0297 43.0916 83.2386 43.246 82.5632 43.5546C81.907 43.8633 81.3667 44.3841 80.9422 45.1172C80.5176 45.8696 80.2089 46.8823 80.0159 48.1556H79.3502C79.4081 47.6733 79.437 47.0463 79.437 46.2747C79.437 45.9081 79.4177 45.3776 79.3791 44.6832C79.3598 43.9887 79.3116 43.2653 79.2344 42.5129H87.6576C88.6418 42.5129 89.2786 42.3682 89.5681 42.0789C89.8575 41.7702 90.0023 41.0854 90.0023 40.0243V25.6717C90.0023 24.6107 89.8479 23.9355 89.5391 23.6462C89.2497 23.3375 88.7383 23.1832 88.005 23.1832H87.6287C87.2235 23.1832 86.8954 23.2507 86.6445 23.3857C86.3937 23.5015 86.2007 23.7426 86.0656 24.1092C85.9498 24.4564 85.863 24.9773 85.8051 25.6717C85.6893 26.9835 85.5735 28.4207 85.4577 29.9833C85.3613 31.5459 85.2069 33.0988 84.9946 34.6421C84.8016 36.1661 84.5025 37.5647 84.0973 38.8379C83.7113 40.1112 83.171 41.1336 82.4763 41.9052C81.7816 42.6769 80.8746 43.0627 79.7554 43.0627V42.5129C80.6431 42.5129 81.386 42.185 81.9842 41.5291C82.5825 40.8539 83.0649 39.9472 83.4315 38.809C83.7982 37.6708 84.0876 36.3783 84.2999 34.9315C84.5315 33.4654 84.7052 31.9414 84.8209 30.3595C84.9367 28.7776 85.0429 27.215 85.1393 25.6717C85.1972 24.6493 85.0815 23.9934 84.792 23.7041C84.5025 23.3954 83.8368 23.2218 82.7947 23.1832V22.6045C83.2 22.6237 83.6824 22.643 84.242 22.6623C84.8016 22.6816 85.313 22.6913 85.7762 22.6913C86.22 22.6913 86.6445 22.6816 87.0498 22.6623C87.4743 22.6237 87.8989 22.6045 88.3234 22.6045C89.0567 22.6045 89.7224 22.6237 90.3207 22.6623C90.9189 22.6816 91.6329 22.6913 92.4627 22.6913C92.9451 22.6913 93.4661 22.6913 94.0257 22.6913C94.6047 22.672 95.145 22.6623 95.6467 22.6623C96.1677 22.643 96.6019 22.6237 96.9493 22.6045Z" fill="black"/>
<path d="M115.108 22.6045C115.031 23.4533 114.973 24.2731 114.935 25.0641C114.915 25.855 114.906 26.4627 114.906 26.8871C114.906 27.2729 114.915 27.6394 114.935 27.9867C114.954 28.3339 114.973 28.6233 114.993 28.8548H114.327C114.134 27.4465 113.835 26.3373 113.429 25.5271C113.024 24.6975 112.494 24.1188 111.837 23.7909C111.201 23.4436 110.448 23.27 109.58 23.27H108.393C107.814 23.27 107.38 23.3182 107.09 23.4147C106.82 23.5111 106.637 23.7041 106.54 23.9934C106.444 24.2635 106.396 24.7072 106.396 25.3245V40.3716C106.396 40.9696 106.444 41.4133 106.54 41.7027C106.637 41.992 106.82 42.185 107.09 42.2814C107.38 42.3779 107.814 42.4261 108.393 42.4261H109.811C110.68 42.4261 111.442 42.2428 112.098 41.8763C112.773 41.4905 113.343 40.8442 113.806 39.9375C114.288 39.0309 114.655 37.8059 114.906 36.2626H115.571C115.514 36.8799 115.485 37.6901 115.485 38.6933C115.485 39.137 115.494 39.7639 115.514 40.5741C115.533 41.3844 115.591 42.2235 115.687 43.0916C114.703 43.0531 113.593 43.0338 112.358 43.0338C111.123 43.0145 110.023 43.0048 109.059 43.0048C108.403 43.0048 107.534 43.0048 106.453 43.0048C105.373 43.0048 104.225 43.0145 103.009 43.0338C101.793 43.0338 100.664 43.0531 99.6223 43.0916V42.5129C100.24 42.4743 100.703 42.3972 101.012 42.2814C101.32 42.1657 101.523 41.9342 101.62 41.5869C101.735 41.2397 101.793 40.7188 101.793 40.0243V25.6717C101.793 24.958 101.735 24.4371 101.62 24.1092C101.523 23.7619 101.311 23.5304 100.983 23.4147C100.674 23.2796 100.22 23.2025 99.6223 23.1832V22.6045C100.664 22.6237 101.793 22.643 103.009 22.6623C104.225 22.6816 105.373 22.6913 106.453 22.6913C107.534 22.6913 108.403 22.6913 109.059 22.6913C109.946 22.6913 110.95 22.6913 112.069 22.6913C113.208 22.672 114.221 22.643 115.108 22.6045ZM110.593 32.5008C110.593 32.5008 110.593 32.5973 110.593 32.7902C110.593 32.9831 110.593 33.0795 110.593 33.0795H105.527C105.527 33.0795 105.527 32.9831 105.527 32.7902C105.527 32.5973 105.527 32.5008 105.527 32.5008H110.593ZM111.432 28.6812C111.355 29.7808 111.316 30.6199 111.316 31.1987C111.336 31.7774 111.345 32.3079 111.345 32.7902C111.345 33.2725 111.355 33.803 111.374 34.3817C111.394 34.9604 111.442 35.7996 111.519 36.8992H110.853C110.757 36.224 110.573 35.597 110.303 35.0183C110.052 34.4396 109.686 33.9766 109.203 33.6293C108.721 33.2628 108.094 33.0795 107.322 33.0795V32.5008C108.094 32.5008 108.711 32.2886 109.174 31.8642C109.638 31.4398 109.995 30.9382 110.245 30.3595C110.496 29.7615 110.67 29.202 110.766 28.6812H111.432Z" fill="black"/>
<path d="M129.749 34.0634V36.4651H119.299V34.0634H129.749Z" fill="black"/>
<path d="M152.315 22.1993C154.226 22.1993 155.895 22.6141 157.323 23.4436C158.77 24.2731 159.89 25.4692 160.681 27.0318C161.491 28.5751 161.896 30.4559 161.896 32.6744C161.896 34.835 161.482 36.7256 160.652 38.346C159.822 39.9665 158.683 41.23 157.236 42.1367C155.808 43.0434 154.158 43.4967 152.286 43.4967C150.357 43.4967 148.678 43.082 147.25 42.2525C145.822 41.423 144.703 40.2269 143.892 38.6643C143.101 37.1017 142.705 35.2209 142.705 33.0217C142.705 30.8611 143.111 28.9705 143.921 27.3501C144.751 25.7296 145.889 24.466 147.337 23.5594C148.784 22.6527 150.444 22.1993 152.315 22.1993ZM144.934 32.5587V33.1374H137.611V32.5587H144.934ZM152.2 22.7202C151.235 22.7202 150.395 23.1543 149.681 24.0224C148.987 24.8905 148.446 26.0865 148.06 27.6105C147.694 29.1345 147.51 30.8996 147.51 32.9059C147.51 34.9508 147.723 36.7352 148.147 38.2592C148.591 39.7639 149.18 40.931 149.913 41.7605C150.665 42.5708 151.486 42.9759 152.373 42.9759C153.338 42.9759 154.168 42.5418 154.863 41.6737C155.577 40.8056 156.127 39.6096 156.513 38.0856C156.898 36.5423 157.091 34.7772 157.091 32.7902C157.091 30.726 156.87 28.9416 156.426 27.4369C155.982 25.9322 155.393 24.7747 154.66 23.9645C153.927 23.135 153.107 22.7202 152.2 22.7202ZM141.808 22.6045V23.1832C141.19 23.2025 140.718 23.2796 140.39 23.4147C140.081 23.5304 139.878 23.7619 139.782 24.1092C139.685 24.4371 139.637 24.958 139.637 25.6717V40.0243C139.637 40.7188 139.685 41.2397 139.782 41.5869C139.898 41.9342 140.11 42.1657 140.419 42.2814C140.727 42.3972 141.19 42.4743 141.808 42.5129V43.0916C141.287 43.0531 140.631 43.0338 139.84 43.0338C139.048 43.0145 138.248 43.0048 137.437 43.0048C136.492 43.0048 135.614 43.0145 134.803 43.0338C134.012 43.0338 133.365 43.0531 132.864 43.0916V42.5129C133.481 42.4743 133.944 42.3972 134.253 42.2814C134.562 42.1657 134.764 41.9342 134.861 41.5869C134.977 41.2397 135.035 40.7188 135.035 40.0243V25.6717C135.035 24.958 134.977 24.4371 134.861 24.1092C134.764 23.7619 134.552 23.5304 134.224 23.4147C133.915 23.2796 133.462 23.2025 132.864 23.1832V22.6045C133.365 22.6237 134.012 22.643 134.803 22.6623C135.614 22.6816 136.492 22.6913 137.437 22.6913C138.248 22.6913 139.048 22.6816 139.84 22.6623C140.631 22.643 141.287 22.6237 141.808 22.6045Z" fill="black"/>
<path d="M164.48 22.6045C164.963 22.6237 165.609 22.643 166.42 22.6623C167.25 22.6816 168.07 22.6913 168.88 22.6913C169.806 22.6913 170.704 22.6816 171.572 22.6623C172.44 22.643 173.058 22.6334 173.425 22.6334C176.107 22.6334 178.114 23.1639 179.445 24.2249C180.777 25.2859 181.443 26.6556 181.443 28.3339C181.443 29.0284 181.308 29.7615 181.037 30.5331C180.767 31.2855 180.304 31.9896 179.648 32.6455C179.011 33.2821 178.133 33.803 177.014 34.2081C175.895 34.6132 174.486 34.8157 172.788 34.8157H169.835V34.237H172.498C173.637 34.237 174.496 33.9766 175.075 33.4557C175.673 32.9349 176.078 32.25 176.29 31.4012C176.522 30.5524 176.638 29.6361 176.638 28.6522C176.638 26.8196 176.367 25.4499 175.827 24.5432C175.287 23.6365 174.361 23.1832 173.048 23.1832C172.296 23.1832 171.804 23.3472 171.572 23.6751C171.36 24.0031 171.254 24.6686 171.254 25.6717V39.8507C171.254 40.6031 171.331 41.1625 171.485 41.5291C171.64 41.8956 171.939 42.1367 172.383 42.2525C172.826 42.3682 173.483 42.4357 174.351 42.455V43.0916C173.753 43.0723 172.981 43.0531 172.035 43.0338C171.09 43.0145 170.096 43.0048 169.054 43.0048C168.224 43.0048 167.414 43.0145 166.622 43.0338C165.831 43.0531 165.117 43.0723 164.48 43.0916V42.5129C165.098 42.4743 165.561 42.3972 165.87 42.2814C166.179 42.1657 166.381 41.9342 166.478 41.5869C166.593 41.2397 166.651 40.7188 166.651 40.0243V25.6717C166.651 24.958 166.593 24.4371 166.478 24.1092C166.381 23.7619 166.169 23.5304 165.841 23.4147C165.532 23.2796 165.079 23.2025 164.48 23.1832V22.6045Z" fill="black"/>
<path d="M198.947 22.6045C198.87 23.4533 198.812 24.2731 198.774 25.0641C198.755 25.855 198.745 26.4627 198.745 26.8871C198.745 27.2729 198.755 27.6394 198.774 27.9867C198.793 28.3339 198.812 28.6233 198.832 28.8548H198.166C197.973 27.4465 197.674 26.3373 197.269 25.5271C196.863 24.6975 196.333 24.1188 195.677 23.7909C195.04 23.4436 194.287 23.27 193.419 23.27H192.232C191.653 23.27 191.219 23.3182 190.929 23.4147C190.659 23.5111 190.476 23.7041 190.379 23.9934C190.283 24.2635 190.235 24.7072 190.235 25.3245V40.3716C190.235 40.9696 190.283 41.4133 190.379 41.7027C190.476 41.992 190.659 42.185 190.929 42.2814C191.219 42.3779 191.653 42.4261 192.232 42.4261H193.65C194.519 42.4261 195.281 42.2428 195.937 41.8763C196.613 41.4905 197.182 40.8442 197.645 39.9375C198.127 39.0309 198.494 37.8059 198.745 36.2626H199.411C199.353 36.8799 199.324 37.6901 199.324 38.6933C199.324 39.137 199.333 39.7639 199.353 40.5741C199.372 41.3844 199.43 42.2235 199.526 43.0916C198.542 43.0531 197.433 43.0338 196.198 43.0338C194.963 43.0145 193.863 43.0048 192.898 43.0048C192.242 43.0048 191.373 43.0048 190.293 43.0048C189.212 43.0048 188.064 43.0145 186.848 43.0338C185.632 43.0338 184.503 43.0531 183.461 43.0916V42.5129C184.079 42.4743 184.542 42.3972 184.851 42.2814C185.16 42.1657 185.362 41.9342 185.459 41.5869C185.574 41.2397 185.632 40.7188 185.632 40.0243V25.6717C185.632 24.958 185.574 24.4371 185.459 24.1092C185.362 23.7619 185.15 23.5304 184.822 23.4147C184.513 23.2796 184.06 23.2025 183.461 23.1832V22.6045C184.503 22.6237 185.632 22.643 186.848 22.6623C188.064 22.6816 189.212 22.6913 190.293 22.6913C191.373 22.6913 192.242 22.6913 192.898 22.6913C193.785 22.6913 194.789 22.6913 195.908 22.6913C197.047 22.672 198.06 22.643 198.947 22.6045ZM194.432 32.5008C194.432 32.5008 194.432 32.5973 194.432 32.7902C194.432 32.9831 194.432 33.0795 194.432 33.0795H189.366C189.366 33.0795 189.366 32.9831 189.366 32.7902C189.366 32.5973 189.366 32.5008 189.366 32.5008H194.432ZM195.271 28.6812C195.194 29.7808 195.156 30.6199 195.156 31.1987C195.175 31.7774 195.185 32.3079 195.185 32.7902C195.185 33.2725 195.194 33.803 195.213 34.3817C195.233 34.9604 195.281 35.7996 195.358 36.8992H194.692C194.596 36.224 194.413 35.597 194.142 35.0183C193.892 34.4396 193.525 33.9766 193.043 33.6293C192.56 33.2628 191.933 33.0795 191.161 33.0795V32.5008C191.933 32.5008 192.55 32.2886 193.014 31.8642C193.477 31.4398 193.834 30.9382 194.085 30.3595C194.335 29.7615 194.509 29.202 194.606 28.6812H195.271Z" fill="black"/>
<path d="M211.33 22.6045V23.1832C210.713 23.2025 210.24 23.2796 209.912 23.4147C209.603 23.5304 209.4 23.7619 209.304 24.1092C209.208 24.4371 209.159 24.958 209.159 25.6717V40.0243C209.159 40.7188 209.208 41.2397 209.304 41.5869C209.42 41.9342 209.632 42.1657 209.941 42.2814C210.25 42.3972 210.713 42.4743 211.33 42.5129V43.0916C210.809 43.0531 210.153 43.0338 209.362 43.0338C208.571 43.0145 207.77 43.0048 206.959 43.0048C206.033 43.0048 205.155 43.0145 204.325 43.0338C203.515 43.0338 202.868 43.0531 202.386 43.0916V42.5129C203.003 42.4743 203.467 42.3972 203.775 42.2814C204.084 42.1657 204.287 41.9342 204.383 41.5869C204.499 41.2397 204.557 40.7188 204.557 40.0243V25.6717C204.557 24.958 204.499 24.4371 204.383 24.1092C204.287 23.7619 204.074 23.5304 203.746 23.4147C203.438 23.2796 202.984 23.2025 202.386 23.1832V22.6045C202.868 22.6237 203.515 22.643 204.325 22.6623C205.155 22.6816 206.033 22.6913 206.959 22.6913C207.77 22.6913 208.571 22.6816 209.362 22.6623C210.153 22.643 210.809 22.6237 211.33 22.6045ZM209.999 32.1536C211.542 32.1536 212.884 32.2693 214.022 32.5008C215.18 32.713 216.106 33.1085 216.801 33.6872C217.515 34.2467 217.997 35.0762 218.248 36.1758L219.088 40.0533C219.242 40.8442 219.416 41.394 219.609 41.7027C219.802 41.992 220.091 42.1367 220.477 42.1367C220.709 42.1174 220.902 42.0596 221.056 41.9631C221.23 41.8474 221.413 41.6834 221.606 41.4712L222.011 41.8184C221.49 42.3972 220.931 42.8216 220.332 43.0916C219.734 43.3617 219.011 43.4967 218.161 43.4967C217.119 43.4967 216.261 43.2845 215.585 42.8601C214.91 42.4164 214.466 41.5869 214.254 40.3716L213.472 35.9443C213.337 35.1726 213.135 34.5457 212.864 34.0634C212.613 33.5811 212.228 33.2242 211.707 32.9927C211.186 32.7612 210.462 32.6455 209.536 32.6455H208.407V32.1536H209.999ZM209.044 32.6455V32.1536C209.873 32.1343 210.626 31.9124 211.301 31.488C211.977 31.0443 212.7 30.3691 213.472 29.4625L215.18 27.4079C215.933 26.5398 216.367 25.7971 216.483 25.1798C216.598 24.5432 216.473 24.0513 216.106 23.7041C215.74 23.3568 215.17 23.1735 214.398 23.1543V22.6045C215.113 22.6237 215.788 22.643 216.425 22.6623C217.062 22.6816 217.804 22.6913 218.654 22.6913C219.792 22.6913 220.709 22.6623 221.403 22.6045V23.1543C220.767 23.2893 220.101 23.5594 219.406 23.9645C218.711 24.3696 217.969 25.0255 217.177 25.9322L211.446 32.6455H209.044Z" fill="black"/>
<path d="M233.825 22.1993C235.098 22.1993 236.141 22.3923 236.951 22.7781C237.781 23.1446 238.514 23.5787 239.151 24.0802C239.537 24.3696 239.826 24.4082 240.019 24.196C240.232 23.9645 240.376 23.434 240.453 22.6045H241.119C241.081 23.3568 241.052 24.2731 241.032 25.3534C241.013 26.4145 241.003 27.8324 241.003 29.6071H240.338C240.241 28.7197 240.116 27.9674 239.961 27.3501C239.807 26.7135 239.595 26.154 239.325 25.6717C239.054 25.1895 238.668 24.7554 238.167 24.3696C237.684 23.8873 237.125 23.5304 236.488 23.2989C235.851 23.0674 235.185 22.9517 234.491 22.9517C233.449 22.9517 232.561 23.2314 231.828 23.7909C231.094 24.331 230.496 25.0737 230.033 26.019C229.589 26.9643 229.261 28.0349 229.049 29.231C228.836 30.4077 228.73 31.6327 228.73 32.9059C228.73 34.1984 228.836 35.4427 229.049 36.6388C229.28 37.8155 229.628 38.8669 230.091 39.7929C230.573 40.7188 231.191 41.4519 231.943 41.992C232.696 42.5322 233.584 42.8023 234.606 42.8023C235.243 42.8023 235.88 42.6865 236.517 42.455C237.173 42.2042 237.733 41.8474 238.196 41.3844C238.948 40.8056 239.46 40.0919 239.73 39.2431C240 38.375 240.203 37.2271 240.338 35.7996H241.003C241.003 37.6322 241.013 39.1177 241.032 40.2558C241.052 41.3747 241.081 42.32 241.119 43.0916H240.453C240.376 42.2621 240.241 41.7413 240.048 41.5291C239.875 41.3169 239.575 41.3458 239.151 41.6159C238.437 42.1174 237.675 42.5611 236.864 42.947C236.073 43.3135 235.05 43.4967 233.796 43.4967C231.75 43.4967 229.956 43.082 228.412 42.2525C226.887 41.423 225.701 40.2269 224.852 38.6643C224.003 37.1017 223.578 35.2209 223.578 33.0217C223.578 30.8611 224.012 28.9705 224.881 27.3501C225.768 25.7296 226.974 24.466 228.499 23.5594C230.043 22.6527 231.818 22.1993 233.825 22.1993Z" fill="black"/>
<path d="M7.41619 66.6509C7.90263 66.6509 8.34123 66.7625 8.73198 66.9858C9.12273 67.2091 9.43373 67.56 9.665 68.0385C9.89626 68.5089 10.0119 69.127 10.0119 69.8925C10.0119 70.6581 9.89626 71.2801 9.665 71.7586C9.43373 72.229 9.12273 72.5759 8.73198 72.7992C8.34123 73.0225 7.90263 73.1342 7.41619 73.1342C6.93772 73.1342 6.49912 73.0225 6.10039 72.7992C5.70964 72.5759 5.39864 72.229 5.16738 71.7586C4.93612 71.2801 4.82049 70.6581 4.82049 69.8925C4.82049 69.127 4.93612 68.5089 5.16738 68.0385C5.39864 67.56 5.70964 67.2091 6.10039 66.9858C6.49912 66.7625 6.93772 66.6509 7.41619 66.6509ZM4.31809 66.8184V67.0695C4.03101 67.0695 3.82766 67.1294 3.70805 67.249C3.58843 67.3686 3.52862 67.5959 3.52862 67.9308V71.8542C3.52862 72.1892 3.5964 72.4165 3.73197 72.5361C3.87551 72.6557 4.11076 72.7155 4.43771 72.7155V72.9667C4.30215 72.9587 4.09082 72.9507 3.80374 72.9428C3.51666 72.9268 3.24154 72.9188 2.97838 72.9188C2.71522 72.9188 2.44409 72.9268 2.16498 72.9428C1.88587 72.9507 1.67854 72.9587 1.54297 72.9667V72.7155C1.86992 72.7155 2.10118 72.6557 2.23675 72.5361C2.38029 72.4165 2.45206 72.1892 2.45206 71.8542V67.9308C2.45206 67.5959 2.38029 67.3686 2.23675 67.249C2.10118 67.1294 1.86992 67.0695 1.54297 67.0695V66.8184C1.67854 66.8263 1.88587 66.8383 2.16498 66.8542C2.44409 66.8622 2.71522 66.8662 2.97838 66.8662C3.24154 66.8662 3.49672 66.8622 3.74393 66.8542C3.99911 66.8383 4.1905 66.8263 4.31809 66.8184ZM5.41858 69.7729V70.0121H3.03819V69.7729H5.41858ZM7.41619 66.8901C7.13708 66.8901 6.88987 66.9938 6.67456 67.2011C6.45925 67.4005 6.2878 67.7195 6.1602 68.1581C6.04059 68.5967 5.98078 69.1748 5.98078 69.8925C5.98078 70.6023 6.04059 71.1804 6.1602 71.627C6.2878 72.0656 6.45925 72.3885 6.67456 72.5959C6.88987 72.7952 7.13708 72.8949 7.41619 72.8949C7.69529 72.8949 7.9425 72.7952 8.15782 72.5959C8.37313 72.3885 8.54059 72.0656 8.66021 71.627C8.7878 71.1804 8.8516 70.6023 8.8516 69.8925C8.8516 69.1748 8.7878 68.5967 8.66021 68.1581C8.54059 67.7195 8.37313 67.4005 8.15782 67.2011C7.9425 66.9938 7.69529 66.8901 7.41619 66.8901Z" fill="black"/>
<path d="M22.1669 66.6748V74.0193C22.1669 74.3622 22.2666 74.5895 22.4659 74.7011C22.6733 74.8208 22.9564 74.8806 23.3152 74.8806V75.1318C23.1398 75.1238 22.8966 75.1118 22.5856 75.0959C22.2745 75.0879 21.9436 75.0839 21.5927 75.0839C21.3455 75.0839 21.0983 75.0879 20.8511 75.0959C20.6119 75.1118 20.4284 75.1238 20.3009 75.1318V74.8806C20.5879 74.8806 20.7913 74.8287 20.9109 74.7251C21.0305 74.6214 21.0903 74.426 21.0903 74.1389V68.1102C21.0903 67.7514 21.0265 67.4882 20.8989 67.3207C20.7714 67.1453 20.5321 67.0576 20.1812 67.0576V66.8064C20.4364 66.8303 20.6836 66.8423 20.9229 66.8423C21.1541 66.8423 21.3734 66.8303 21.5808 66.8064C21.7961 66.7745 21.9915 66.7306 22.1669 66.6748ZM24.0808 66.6389C24.7108 66.6389 25.2371 66.8941 25.6597 67.4045C26.0903 67.9069 26.3057 68.6405 26.3057 69.6054C26.3057 70.1796 26.21 70.7378 26.0186 71.2801C25.8352 71.8224 25.5441 72.2689 25.1454 72.6198C24.7466 72.9627 24.2203 73.1342 23.5664 73.1342C23.1916 73.1342 22.8647 73.0464 22.5856 72.871C22.3144 72.6956 22.131 72.4842 22.0353 72.237L22.1549 72.0696C22.2666 72.2928 22.4261 72.4802 22.6334 72.6318C22.8487 72.7833 23.1159 72.859 23.4348 72.859C23.8814 72.859 24.2283 72.7195 24.4755 72.4404C24.7227 72.1613 24.8942 71.7905 24.9899 71.3279C25.0935 70.8574 25.1454 70.3391 25.1454 69.7729C25.1454 69.1349 25.0935 68.6126 24.9899 68.2059C24.8862 67.7992 24.7307 67.4962 24.5234 67.2968C24.316 67.0975 24.0608 66.9978 23.7578 66.9978C23.3671 66.9978 23.0122 67.1613 22.6932 67.4882C22.3742 67.8072 22.1709 68.2936 22.0832 68.9475L21.9396 68.7801C22.0273 68.1022 22.2666 67.5759 22.6573 67.2011C23.056 66.8263 23.5305 66.6389 24.0808 66.6389Z" fill="black"/>
<path d="M43.3398 66.8184V67.0695C43.0129 67.0695 42.7776 67.1294 42.6341 67.249C42.4985 67.3686 42.4307 67.5959 42.4307 67.9308V71.8542C42.4307 72.1892 42.4985 72.4165 42.6341 72.5361C42.7776 72.6557 43.0129 72.7155 43.3398 72.7155V72.9667C43.2043 72.9587 42.9969 72.9507 42.7178 72.9428C42.4387 72.9268 42.1676 72.9188 41.9044 72.9188C41.6413 72.9188 41.3821 72.9268 41.1269 72.9428C40.8797 72.9507 40.6923 72.9587 40.5647 72.9667V72.7155C40.8518 72.7155 41.0551 72.6557 41.1748 72.5361C41.2944 72.4165 41.3542 72.1892 41.3542 71.8542V67.9308C41.3542 67.5959 41.2944 67.3686 41.1748 67.249C41.0551 67.1294 40.8518 67.0695 40.5647 67.0695V66.8184C40.6923 66.8263 40.8797 66.8383 41.1269 66.8542C41.3821 66.8622 41.6413 66.8662 41.9044 66.8662C42.1676 66.8662 42.4387 66.8622 42.7178 66.8542C42.9969 66.8383 43.2043 66.8263 43.3398 66.8184ZM39.3207 66.8184V67.0695C39.0336 67.0695 38.8303 67.1294 38.7106 67.249C38.591 67.3686 38.5312 67.5959 38.5312 67.9308V71.8542C38.5312 72.1892 38.591 72.4165 38.7106 72.5361C38.8303 72.6557 39.0336 72.7155 39.3207 72.7155V72.9667C39.1931 72.9587 39.0017 72.9507 38.7465 72.9428C38.4993 72.9268 38.2441 72.9188 37.981 72.9188C37.7178 72.9188 37.4467 72.9268 37.1676 72.9428C36.8885 72.9507 36.6811 72.9587 36.5456 72.9667V72.7155C36.8725 72.7155 37.1038 72.6557 37.2393 72.5361C37.3829 72.4165 37.4547 72.1892 37.4547 71.8542V67.9308C37.4547 67.5959 37.3829 67.3686 37.2393 67.249C37.1038 67.1294 36.8725 67.0695 36.5456 67.0695V66.8184C36.6811 66.8263 36.8885 66.8383 37.1676 66.8542C37.4467 66.8622 37.7178 66.8662 37.981 66.8662C38.2441 66.8662 38.4993 66.8622 38.7465 66.8542C39.0017 66.8383 39.1931 66.8263 39.3207 66.8184ZM41.4738 67.6557L41.6652 67.7873L38.3757 72.3327L38.1843 72.1892L41.4738 67.6557Z" fill="black"/>
<path d="M58.8898 66.8184V67.0695C58.5629 67.0695 58.3276 67.1294 58.1841 67.249C58.0485 67.3686 57.9807 67.5959 57.9807 67.9308V71.8542C57.9807 72.1892 58.0445 72.4165 58.1721 72.5361C58.3077 72.6557 58.5908 72.7155 59.0214 72.7155C58.9895 72.9946 58.9656 73.2617 58.9496 73.5169C58.9417 73.7721 58.9377 73.9675 58.9377 74.1031C58.9377 74.4141 58.9496 74.6613 58.9736 74.8447H58.6984C58.6586 74.3742 58.6027 73.9954 58.531 73.7083C58.4672 73.4292 58.3516 73.2259 58.1841 73.0983C58.0246 72.9787 57.7814 72.9188 57.4544 72.9188C57.1992 72.9188 56.96 72.9228 56.7367 72.9308C56.5214 72.9388 56.2543 72.9468 55.9353 72.9547C55.6243 72.9627 55.2016 72.9667 54.6673 72.9667C54.3404 72.9667 54.0932 73.0225 53.9257 73.1342C53.7662 73.2538 53.6506 73.4491 53.5788 73.7203C53.515 73.9994 53.4632 74.3742 53.4233 74.8447H53.1482C53.1721 74.6613 53.1841 74.4141 53.1841 74.1031C53.1841 73.9675 53.1761 73.7721 53.1602 73.5169C53.1522 73.2617 53.1322 72.9946 53.1003 72.7155H56.1147C56.4018 72.7155 56.6051 72.6557 56.7248 72.5361C56.8444 72.4165 56.9042 72.1892 56.9042 71.8542V67.9308C56.9042 67.5959 56.8444 67.3686 56.7248 67.249C56.6051 67.1294 56.4018 67.0695 56.1147 67.0695H56.007C55.72 67.0695 55.5246 67.1294 55.4209 67.249C55.3173 67.3686 55.2495 67.5959 55.2176 67.9308C55.1857 68.3614 55.1418 68.816 55.086 69.2944C55.0381 69.7649 54.9704 70.2235 54.8826 70.67C54.7949 71.1166 54.6753 71.5193 54.5238 71.8782C54.4361 72.0935 54.3204 72.3008 54.1769 72.5002C54.0334 72.6916 53.834 72.8112 53.5788 72.859L53.3276 72.7155C53.5828 72.7155 53.7941 72.6238 53.9616 72.4404C54.1291 72.249 54.2527 72.0416 54.3324 71.8184C54.5318 71.3 54.6793 70.6979 54.775 70.0121C54.8707 69.3263 54.9464 68.6326 55.0023 67.9308C55.0262 67.5959 54.9544 67.3686 54.7869 67.249C54.6275 67.1294 54.3842 67.0695 54.0573 67.0695V66.8184C54.1211 66.8263 54.2208 66.8383 54.3563 66.8542C54.4999 66.8622 54.6713 66.8662 54.8707 66.8662C55.07 66.8662 55.2734 66.8582 55.4807 66.8423C55.696 66.8263 55.9153 66.8184 56.1386 66.8184C56.3619 66.8184 56.5653 66.8263 56.7487 66.8423C56.9401 66.8582 57.1713 66.8662 57.4425 66.8662C57.7216 66.8662 57.9967 66.8622 58.2678 66.8542C58.5469 66.8383 58.7543 66.8263 58.8898 66.8184Z" fill="black"/>
<path d="M75.7608 66.8184V67.0695C75.4339 67.0695 75.1986 67.1294 75.0551 67.249C74.9195 67.3686 74.8518 67.5959 74.8518 67.9308V71.8542C74.8518 72.1892 74.9195 72.4165 75.0551 72.5361C75.1986 72.6557 75.4339 72.7155 75.7608 72.7155V72.9667C75.6253 72.9587 75.4179 72.9507 75.1388 72.9428C74.8597 72.9268 74.5886 72.9188 74.3254 72.9188C74.0623 72.9188 73.8031 72.9268 73.5479 72.9428C73.3007 72.9507 73.1133 72.9587 72.9857 72.9667V72.7155C73.2728 72.7155 73.4762 72.6557 73.5958 72.5361C73.7154 72.4165 73.7752 72.1892 73.7752 71.8542V67.9308C73.7752 67.5959 73.7154 67.3686 73.5958 67.249C73.4762 67.1294 73.2728 67.0695 72.9857 67.0695V66.8184C73.1133 66.8263 73.3007 66.8383 73.5479 66.8542C73.8031 66.8622 74.0623 66.8662 74.3254 66.8662C74.5886 66.8662 74.8597 66.8622 75.1388 66.8542C75.4179 66.8383 75.6253 66.8263 75.7608 66.8184ZM71.7417 66.8184V67.0695C71.4546 67.0695 71.2513 67.1294 71.1317 67.249C71.012 67.3686 70.9522 67.5959 70.9522 67.9308V71.8542C70.9522 72.1892 71.012 72.4165 71.1317 72.5361C71.2513 72.6557 71.4546 72.7155 71.7417 72.7155V72.9667C71.6141 72.9587 71.4227 72.9507 71.1675 72.9428C70.9203 72.9268 70.6651 72.9188 70.402 72.9188C70.1388 72.9188 69.8677 72.9268 69.5886 72.9428C69.3095 72.9507 69.1021 72.9587 68.9666 72.9667V72.7155C69.2935 72.7155 69.5248 72.6557 69.6604 72.5361C69.8039 72.4165 69.8757 72.1892 69.8757 71.8542V67.9308C69.8757 67.5959 69.8039 67.3686 69.6604 67.249C69.5248 67.1294 69.2935 67.0695 68.9666 67.0695V66.8184C69.1021 66.8263 69.3095 66.8383 69.5886 66.8542C69.8677 66.8622 70.1388 66.8662 70.402 66.8662C70.6651 66.8662 70.9203 66.8622 71.1675 66.8542C71.4227 66.8383 71.6141 66.8263 71.7417 66.8184ZM73.8948 67.6557L74.0862 67.7873L70.7967 72.3327L70.6053 72.1892L73.8948 67.6557Z" fill="black"/>
<path d="M91.8491 66.8184V67.0695C91.5222 67.0695 91.2869 67.1294 91.1434 67.249C91.0078 67.3686 90.94 67.5959 90.94 67.9308V71.8542C90.94 72.1892 91.0078 72.4165 91.1434 72.5361C91.2869 72.6557 91.5222 72.7155 91.8491 72.7155V72.9667C91.7135 72.9587 91.5142 72.9507 91.251 72.9428C90.9879 72.9268 90.6928 72.9188 90.3659 72.9188C90.0469 72.9188 89.7159 72.9268 89.373 72.9428C89.0381 72.9507 88.7789 72.9587 88.5955 72.9667V72.7155C88.9942 72.7155 89.3052 72.6517 89.5285 72.5241C89.7518 72.3885 89.8635 72.1254 89.8635 71.7346V67.9308C89.8635 67.5959 89.8037 67.3686 89.684 67.249C89.5644 67.1294 89.3611 67.0695 89.074 67.0695V66.8184C89.2016 66.8263 89.389 66.8383 89.6362 66.8542C89.8914 66.8622 90.1506 66.8662 90.4137 66.8662C90.6769 66.8662 90.948 66.8622 91.2271 66.8542C91.5062 66.8383 91.7135 66.8263 91.8491 66.8184ZM88.3922 66.8184V67.0695C88.1051 67.0695 87.9017 67.1294 87.7821 67.249C87.6625 67.3686 87.6027 67.5959 87.6027 67.9308V68.8638C87.6027 69.1429 87.6186 69.3861 87.6505 69.5935C87.6904 69.8008 87.7821 69.9603 87.9257 70.0719C88.0692 70.1836 88.3005 70.2394 88.6194 70.2394C88.8746 70.2394 89.1179 70.2075 89.3491 70.1437C89.5804 70.0719 89.7718 69.9802 89.9233 69.8686V70.1198C89.7638 70.2314 89.5166 70.3431 89.1816 70.4547C88.8547 70.5664 88.5158 70.6222 88.1649 70.6222C87.8858 70.6222 87.6386 70.5823 87.4233 70.5026C87.2159 70.4149 87.0485 70.3032 86.9209 70.1676C86.7694 70.0082 86.6657 69.8008 86.6099 69.5456C86.5541 69.2904 86.5261 68.9755 86.5261 68.6007V67.9308C86.5261 67.5959 86.4544 67.3686 86.3108 67.249C86.1753 67.1294 85.944 67.0695 85.617 67.0695V66.8184C85.7526 66.8263 85.9599 66.8383 86.2391 66.8542C86.5182 66.8622 86.7893 66.8662 87.0525 66.8662C87.3156 66.8662 87.5708 66.8622 87.818 66.8542C88.0732 66.8383 88.2646 66.8263 88.3922 66.8184Z" fill="black"/>
<path d="M104.785 66.6389C105.487 66.6389 106.033 66.8542 106.424 67.2849C106.822 67.7075 107.022 68.3694 107.022 69.2705H102.799L102.787 69.0432H105.873C105.889 68.6525 105.857 68.2936 105.778 67.9667C105.698 67.6318 105.57 67.3646 105.395 67.1652C105.227 66.9659 105.008 66.8662 104.737 66.8662C104.37 66.8662 104.043 67.0496 103.756 67.4164C103.477 67.7833 103.31 68.3654 103.254 69.1629L103.29 69.2107C103.274 69.3303 103.262 69.4619 103.254 69.6054C103.246 69.749 103.242 69.8925 103.242 70.0361C103.242 70.5783 103.33 71.0448 103.505 71.4356C103.68 71.8263 103.908 72.1254 104.187 72.3327C104.474 72.5321 104.769 72.6318 105.072 72.6318C105.431 72.6318 105.762 72.544 106.065 72.3686C106.368 72.1932 106.623 71.8822 106.83 71.4356L107.07 71.5313C106.982 71.7944 106.838 72.0496 106.639 72.2968C106.44 72.544 106.188 72.7474 105.885 72.9069C105.582 73.0584 105.231 73.1342 104.833 73.1342C104.259 73.1342 103.764 73.0026 103.35 72.7394C102.943 72.4763 102.628 72.1134 102.405 71.6509C102.189 71.1804 102.082 70.6421 102.082 70.0361C102.082 69.3343 102.193 68.7322 102.416 68.2298C102.64 67.7195 102.955 67.3287 103.361 67.0576C103.768 66.7785 104.243 66.6389 104.785 66.6389Z" fill="black"/>
<path d="M120.25 66.6389C120.505 66.6389 120.752 66.6708 120.991 66.7346C121.231 66.7984 121.446 66.8941 121.637 67.0217C121.821 67.1413 121.96 67.2809 122.056 67.4404C122.152 67.5919 122.2 67.7593 122.2 67.9428C122.2 68.1581 122.14 68.3255 122.02 68.4452C121.9 68.5568 121.749 68.6126 121.566 68.6126C121.39 68.6126 121.235 68.5608 121.099 68.4571C120.971 68.3534 120.908 68.2059 120.908 68.0145C120.908 67.8311 120.955 67.6836 121.051 67.5719C121.155 67.4603 121.274 67.3885 121.41 67.3566C121.33 67.2131 121.187 67.0935 120.979 66.9978C120.78 66.9021 120.565 66.8542 120.333 66.8542C120.134 66.8542 119.935 66.9021 119.735 66.9978C119.536 67.0935 119.353 67.253 119.185 67.4762C119.018 67.6916 118.882 67.9906 118.778 68.3734C118.675 68.7482 118.623 69.2187 118.623 69.7849C118.623 70.4866 118.703 71.0448 118.862 71.4595C119.022 71.8742 119.229 72.1732 119.484 72.3566C119.747 72.5321 120.034 72.6198 120.345 72.6198C120.656 72.6198 120.971 72.5281 121.29 72.3447C121.609 72.1613 121.873 71.8423 122.08 71.3877L122.307 71.4715C122.227 71.7267 122.096 71.9858 121.912 72.249C121.729 72.5042 121.49 72.7155 121.195 72.883C120.9 73.0504 120.537 73.1342 120.106 73.1342C119.612 73.1342 119.165 73.0066 118.767 72.7514C118.368 72.4962 118.049 72.1334 117.81 71.6629C117.578 71.1844 117.463 70.6182 117.463 69.9643C117.463 69.3104 117.578 68.7362 117.81 68.2418C118.049 67.7394 118.38 67.3487 118.802 67.0695C119.225 66.7825 119.707 66.6389 120.25 66.6389Z" fill="black"/>
<path d="M137.67 66.6389C137.949 66.6389 138.144 66.7067 138.256 66.8423C138.376 66.9778 138.436 67.1294 138.436 67.2968C138.436 67.4723 138.38 67.6238 138.268 67.7514C138.156 67.871 138.001 67.9308 137.802 67.9308C137.658 67.9308 137.534 67.8989 137.431 67.8351C137.327 67.7713 137.247 67.6836 137.192 67.5719C137.136 67.4523 137.108 67.3168 137.108 67.1652C137.108 67.1493 137.108 67.1333 137.108 67.1174C137.108 67.1014 137.108 67.0895 137.108 67.0815C137.02 67.1214 136.94 67.1932 136.869 67.2968C136.805 67.4005 136.737 67.54 136.665 67.7155C136.593 67.8909 136.51 68.1062 136.414 68.3614C136.334 68.5767 136.243 68.7841 136.139 68.9834C136.035 69.1828 135.892 69.3503 135.708 69.4858C135.525 69.6214 135.274 69.7091 134.955 69.749L135.062 69.6652C135.541 69.6493 135.959 69.7011 136.318 69.8208C136.685 69.9404 136.972 70.1637 137.18 70.4906C137.315 70.6979 137.427 70.9531 137.514 71.2562C137.61 71.5592 137.71 71.8263 137.814 72.0576C137.901 72.257 138.001 72.4125 138.113 72.5241C138.232 72.6278 138.416 72.6916 138.663 72.7155V72.9667C138.535 72.9906 138.408 73.0106 138.28 73.0265C138.152 73.0424 138.033 73.0504 137.921 73.0504C137.562 73.0504 137.299 72.9667 137.132 72.7992C136.964 72.6238 136.837 72.3885 136.749 72.0935C136.709 71.9579 136.661 71.7944 136.605 71.6031C136.55 71.4037 136.482 71.2043 136.402 71.005C136.322 70.7976 136.227 70.6182 136.115 70.4667C135.94 70.2195 135.712 70.06 135.433 69.9882C135.154 69.9085 134.791 69.8766 134.345 69.8925V69.6892C134.783 69.6652 135.122 69.5935 135.361 69.4739C135.601 69.3463 135.784 69.1708 135.912 68.9475C136.039 68.7243 136.155 68.4611 136.259 68.1581C136.338 67.9348 136.426 67.7075 136.522 67.4762C136.617 67.237 136.753 67.0377 136.928 66.8782C137.112 66.7187 137.359 66.6389 137.67 66.6389ZM135.182 66.8184V67.0695C134.895 67.0695 134.692 67.1294 134.572 67.249C134.452 67.3686 134.392 67.5959 134.392 67.9308V71.8542C134.392 72.1892 134.452 72.4165 134.572 72.5361C134.692 72.6557 134.895 72.7155 135.182 72.7155V72.9667C135.054 72.9587 134.863 72.9507 134.608 72.9428C134.353 72.9268 134.093 72.9188 133.83 72.9188C133.567 72.9188 133.296 72.9268 133.017 72.9428C132.746 72.9507 132.542 72.9587 132.407 72.9667V72.7155C132.734 72.7155 132.965 72.6557 133.101 72.5361C133.244 72.4165 133.316 72.1892 133.316 71.8542V67.9308C133.316 67.5959 133.244 67.3686 133.101 67.249C132.965 67.1294 132.734 67.0695 132.407 67.0695V66.8184C132.542 66.8263 132.746 66.8383 133.017 66.8542C133.296 66.8622 133.567 66.8662 133.83 66.8662C134.093 66.8662 134.353 66.8622 134.608 66.8542C134.863 66.8383 135.054 66.8263 135.182 66.8184Z" fill="black"/>
<path d="M151.338 66.6389C151.848 66.6389 152.307 66.7506 152.713 66.9739C153.12 67.1971 153.443 67.548 153.682 68.0265C153.929 68.505 154.053 69.127 154.053 69.8925C154.053 70.6581 153.929 71.2801 153.682 71.7586C153.443 72.229 153.12 72.5759 152.713 72.7992C152.307 73.0225 151.848 73.1342 151.338 73.1342C150.835 73.1342 150.377 73.0225 149.962 72.7992C149.555 72.5759 149.228 72.229 148.981 71.7586C148.742 71.2801 148.622 70.6581 148.622 69.8925C148.622 69.127 148.742 68.505 148.981 68.0265C149.228 67.548 149.555 67.1971 149.962 66.9739C150.377 66.7506 150.835 66.6389 151.338 66.6389ZM151.338 66.8782C150.883 66.8782 150.508 67.1134 150.213 67.5839C149.926 68.0544 149.783 68.8239 149.783 69.8925C149.783 70.9611 149.926 71.7306 150.213 72.2011C150.508 72.6637 150.883 72.8949 151.338 72.8949C151.792 72.8949 152.163 72.6637 152.45 72.2011C152.745 71.7306 152.893 70.9611 152.893 69.8925C152.893 68.8239 152.745 68.0544 152.45 67.5839C152.163 67.1134 151.792 66.8782 151.338 66.8782Z" fill="black"/>
<path d="M167.197 66.6389C167.899 66.6389 168.445 66.8542 168.836 67.2849C169.235 67.7075 169.434 68.3694 169.434 69.2705H165.212L165.2 69.0432H168.286C168.302 68.6525 168.27 68.2936 168.19 67.9667C168.11 67.6318 167.983 67.3646 167.807 67.1652C167.64 66.9659 167.42 66.8662 167.149 66.8662C166.783 66.8662 166.456 67.0496 166.168 67.4164C165.889 67.7833 165.722 68.3654 165.666 69.1629L165.702 69.2107C165.686 69.3303 165.674 69.4619 165.666 69.6054C165.658 69.749 165.654 69.8925 165.654 70.0361C165.654 70.5783 165.742 71.0448 165.917 71.4356C166.093 71.8263 166.32 72.1254 166.599 72.3327C166.886 72.5321 167.181 72.6318 167.484 72.6318C167.843 72.6318 168.174 72.544 168.477 72.3686C168.78 72.1932 169.035 71.8822 169.243 71.4356L169.482 71.5313C169.394 71.7944 169.251 72.0496 169.051 72.2968C168.852 72.544 168.601 72.7474 168.298 72.9069C167.995 73.0584 167.644 73.1342 167.245 73.1342C166.671 73.1342 166.176 73.0026 165.762 72.7394C165.355 72.4763 165.04 72.1134 164.817 71.6509C164.602 71.1804 164.494 70.6421 164.494 70.0361C164.494 69.3343 164.605 68.7322 164.829 68.2298C165.052 67.7195 165.367 67.3287 165.774 67.0576C166.18 66.7785 166.655 66.6389 167.197 66.6389Z" fill="black"/>
<path d="M197.674 63.5648L197.854 63.6126C197.774 63.8758 197.682 64.115 197.579 64.3303C197.475 64.5456 197.343 64.7171 197.184 64.8447C197.056 64.9483 196.893 65.0361 196.693 65.1078C196.494 65.1796 196.243 65.2235 195.94 65.2394C195.812 65.2474 195.629 65.2593 195.39 65.2753C195.15 65.2912 194.927 65.3191 194.72 65.359C194.393 65.4148 194.114 65.5145 193.882 65.6581C193.651 65.7936 193.456 65.993 193.296 66.2562C193.145 66.5193 193.021 66.8622 192.926 67.2849C192.83 67.7075 192.75 68.2259 192.686 68.8399L193.284 69.5696L192.603 69.2346C192.722 68.6286 192.91 68.1581 193.165 67.8231C193.428 67.4802 193.735 67.237 194.086 67.0935C194.437 66.9499 194.807 66.8782 195.198 66.8782C195.828 66.8782 196.331 67.0217 196.705 67.3088C197.08 67.5879 197.351 67.9547 197.519 68.4093C197.694 68.8558 197.782 69.3383 197.782 69.8566C197.782 70.5105 197.662 71.0847 197.423 71.5791C197.184 72.0735 196.849 72.4563 196.418 72.7275C195.996 72.9986 195.501 73.1342 194.935 73.1342C194.433 73.1342 193.99 73.0106 193.607 72.7633C193.225 72.5082 192.926 72.0935 192.71 71.5193C192.495 70.9452 192.387 70.1836 192.387 69.2346C192.387 69.0991 192.395 68.8678 192.411 68.5408C192.427 68.2059 192.463 67.8311 192.519 67.4164C192.583 67.0018 192.678 66.5991 192.806 66.2083C192.941 65.8096 193.129 65.4786 193.368 65.2155C193.528 65.04 193.727 64.8925 193.966 64.7729C194.205 64.6453 194.485 64.5536 194.804 64.4978C195.051 64.4579 195.31 64.43 195.581 64.414C195.852 64.3981 196.063 64.3861 196.215 64.3782C196.662 64.3463 196.985 64.2665 197.184 64.1389C197.383 64.0113 197.547 63.8199 197.674 63.5648ZM195.15 67.1294C194.879 67.1294 194.62 67.2171 194.373 67.3925C194.126 67.56 193.922 67.8471 193.763 68.2538C193.603 68.6605 193.524 69.2267 193.524 69.9523C193.524 70.6621 193.599 71.2362 193.751 71.6748C193.91 72.1054 194.114 72.4165 194.361 72.6078C194.608 72.7992 194.867 72.8949 195.138 72.8949C195.449 72.8949 195.701 72.7952 195.892 72.5959C196.091 72.3885 196.243 72.1294 196.347 71.8184C196.45 71.4994 196.522 71.1645 196.562 70.8136C196.602 70.4547 196.622 70.1238 196.622 69.8208C196.622 68.8479 196.482 68.1581 196.203 67.7514C195.932 67.3367 195.581 67.1294 195.15 67.1294Z" fill="black"/>
<path d="M213.889 66.6509C214.375 66.6509 214.814 66.7625 215.205 66.9858C215.596 67.2091 215.907 67.56 216.138 68.0385C216.369 68.5089 216.485 69.127 216.485 69.8925C216.485 70.6581 216.369 71.2801 216.138 71.7586C215.907 72.229 215.596 72.5759 215.205 72.7992C214.814 73.0225 214.375 73.1342 213.889 73.1342C213.411 73.1342 212.972 73.0225 212.573 72.7992C212.182 72.5759 211.871 72.229 211.64 71.7586C211.409 71.2801 211.293 70.6581 211.293 69.8925C211.293 69.127 211.409 68.5089 211.64 68.0385C211.871 67.56 212.182 67.2091 212.573 66.9858C212.972 66.7625 213.411 66.6509 213.889 66.6509ZM210.791 66.8184V67.0695C210.504 67.0695 210.301 67.1294 210.181 67.249C210.061 67.3686 210.001 67.5959 210.001 67.9308V71.8542C210.001 72.1892 210.069 72.4165 210.205 72.5361C210.348 72.6557 210.584 72.7155 210.911 72.7155V72.9667C210.775 72.9587 210.564 72.9507 210.277 72.9428C209.99 72.9268 209.714 72.9188 209.451 72.9188C209.188 72.9188 208.917 72.9268 208.638 72.9428C208.359 72.9507 208.151 72.9587 208.016 72.9667V72.7155C208.343 72.7155 208.574 72.6557 208.71 72.5361C208.853 72.4165 208.925 72.1892 208.925 71.8542V67.9308C208.925 67.5959 208.853 67.3686 208.71 67.249C208.574 67.1294 208.343 67.0695 208.016 67.0695V66.8184C208.151 66.8263 208.359 66.8383 208.638 66.8542C208.917 66.8622 209.188 66.8662 209.451 66.8662C209.714 66.8662 209.97 66.8622 210.217 66.8542C210.472 66.8383 210.663 66.8263 210.791 66.8184ZM211.891 69.7729V70.0121H209.511V69.7729H211.891ZM213.889 66.8901C213.61 66.8901 213.363 66.9938 213.147 67.2011C212.932 67.4005 212.761 67.7195 212.633 68.1581C212.513 68.5967 212.454 69.1748 212.454 69.8925C212.454 70.6023 212.513 71.1804 212.633 71.627C212.761 72.0656 212.932 72.3885 213.147 72.5959C213.363 72.7952 213.61 72.8949 213.889 72.8949C214.168 72.8949 214.415 72.7952 214.631 72.5959C214.846 72.3885 215.013 72.0656 215.133 71.627C215.261 71.1804 215.324 70.6023 215.324 69.8925C215.324 69.1748 215.261 68.5967 215.133 68.1581C215.013 67.7195 214.846 67.4005 214.631 67.2011C214.415 66.9938 214.168 66.8901 213.889 66.8901Z" fill="black"/>
<path d="M228.64 66.6748V74.0193C228.64 74.3622 228.739 74.5895 228.939 74.7011C229.146 74.8208 229.429 74.8806 229.788 74.8806V75.1318C229.613 75.1238 229.369 75.1118 229.058 75.0959C228.747 75.0879 228.416 75.0839 228.066 75.0839C227.818 75.0839 227.571 75.0879 227.324 75.0959C227.085 75.1118 226.901 75.1238 226.774 75.1318V74.8806C227.061 74.8806 227.264 74.8287 227.384 74.7251C227.503 74.6214 227.563 74.426 227.563 74.1389V68.1102C227.563 67.7514 227.499 67.4882 227.372 67.3207C227.244 67.1453 227.005 67.0576 226.654 67.0576V66.8064C226.909 66.8303 227.156 66.8423 227.396 66.8423C227.627 66.8423 227.846 66.8303 228.054 66.8064C228.269 66.7745 228.464 66.7306 228.64 66.6748ZM230.554 66.6389C231.184 66.6389 231.71 66.8941 232.133 67.4045C232.563 67.9069 232.779 68.6405 232.779 69.6054C232.779 70.1796 232.683 70.7378 232.491 71.2801C232.308 71.8224 232.017 72.2689 231.618 72.6198C231.219 72.9627 230.693 73.1342 230.039 73.1342C229.664 73.1342 229.338 73.0464 229.058 72.871C228.787 72.6956 228.604 72.4842 228.508 72.237L228.628 72.0696C228.739 72.2928 228.899 72.4802 229.106 72.6318C229.322 72.7833 229.589 72.859 229.908 72.859C230.354 72.859 230.701 72.7195 230.948 72.4404C231.196 72.1613 231.367 71.7905 231.463 71.3279C231.566 70.8574 231.618 70.3391 231.618 69.7729C231.618 69.1349 231.566 68.6126 231.463 68.2059C231.359 67.7992 231.204 67.4962 230.996 67.2968C230.789 67.0975 230.534 66.9978 230.231 66.9978C229.84 66.9978 229.485 67.1613 229.166 67.4882C228.847 67.8072 228.644 68.2936 228.556 68.9475L228.412 68.7801C228.5 68.1022 228.739 67.5759 229.13 67.2011C229.529 66.8263 230.003 66.6389 230.554 66.6389Z" fill="black"/>
<path d="M245.949 66.6389C246.459 66.6389 246.918 66.7506 247.325 66.9739C247.731 67.1971 248.054 67.548 248.294 68.0265C248.541 68.505 248.664 69.127 248.664 69.8925C248.664 70.6581 248.541 71.2801 248.294 71.7586C248.054 72.229 247.731 72.5759 247.325 72.7992C246.918 73.0225 246.459 73.1342 245.949 73.1342C245.447 73.1342 244.988 73.0225 244.573 72.7992C244.167 72.5759 243.84 72.229 243.593 71.7586C243.353 71.2801 243.234 70.6581 243.234 69.8925C243.234 69.127 243.353 68.505 243.593 68.0265C243.84 67.548 244.167 67.1971 244.573 66.9739C244.988 66.7506 245.447 66.6389 245.949 66.6389ZM245.949 66.8782C245.494 66.8782 245.12 67.1134 244.825 67.5839C244.538 68.0544 244.394 68.8239 244.394 69.8925C244.394 70.9611 244.538 71.7306 244.825 72.2011C245.12 72.6637 245.494 72.8949 245.949 72.8949C246.404 72.8949 246.774 72.6637 247.061 72.2011C247.357 71.7306 247.504 70.9611 247.504 69.8925C247.504 68.8239 247.357 68.0544 247.061 67.5839C246.774 67.1134 246.404 66.8782 245.949 66.8782Z" fill="black"/>
</svg>
